<?xml version="1.0" standalone="no"?>

<svg version="1.0" xmlns="http://www.w3.org/2000/svg"
 width="512.000000pt" height="512.000000pt" viewBox="0 0 512.000000 512.000000"
 preserveAspectRatio="xMidYMid meet">


  <symbol id="upload" viewBox="0 0 512.000000 512.000000">
<g transform="translate(0.000000,512.000000) scale(0.100000,-0.100000)">
<path d="M2475 4571 c-27 -13 -207 -187 -557 -537 l-516 -519 -12 -55 c-14
-64 -4 -116 32 -171 29 -44 117 -89 172 -89 84 1 115 25 444 353 l312 312 0
-888 c0 -971 -3 -926 58 -991 81 -86 223 -86 304 0 61 65 58 20 58 991 l0 887
318 -315 c265 -265 325 -319 365 -334 127 -48 268 37 284 172 11 100 25 84
-536 647 -348 349 -529 524 -556 537 -51 24 -119 24 -170 0z"/>
<path d="M695 2231 c-49 -23 -89 -64 -109 -113 -23 -55 -24 -834 -1 -923 52
-203 201 -365 400 -433 l80 -27 1490 0 c1418 0 1493 1 1550 18 199 61 346 205
412 401 l28 81 0 425 0 425 -26 50 c-37 74 -101 110 -190 110 -59 0 -73 -4
-111 -30 -24 -17 -54 -51 -68 -75 l-25 -45 -5 -410 c-3 -285 -9 -416 -17 -430
-18 -31 -65 -73 -97 -84 -39 -15 -2863 -15 -2903 0 -40 15 -73 48 -94 94 -17
37 -19 73 -19 430 0 358 -2 393 -19 430 -49 106 -173 154 -276 106z"/>
</g>
</symbol>


   <symbol id="return" viewBox="0 0 512.000000 512.000000" xmlns="http://www.w3.org/2000/svg" xmlns:xlink="http://www.w3.org/1999/xlink" xml:space="preserve">
<g>
	<path d="M375.789,92.867H166.864l17.507-42.795c3.724-9.132,1-19.574-6.691-25.744c-7.701-6.166-18.538-6.508-26.639-0.879
		L9.574,121.71c-6.197,4.304-9.795,11.457-9.563,18.995c0.231,7.533,4.261,14.446,10.71,18.359l147.925,89.823
		c8.417,5.108,19.18,4.093,26.481-2.499c7.312-6.591,9.427-17.312,5.219-26.202l-19.443-41.132h204.886
		c15.119,0,27.418,12.536,27.418,27.654v149.852c0,15.118-12.299,27.19-27.418,27.19h-226.74c-20.226,0-36.623,16.396-36.623,36.622
		v12.942c0,20.228,16.397,36.624,36.623,36.624h226.74c62.642,0,113.604-50.732,113.604-113.379V206.709
		C489.395,144.062,438.431,92.867,375.789,92.867z"/>
</g>
</symbol>


</svg>
