<?xml version="1.0" encoding="utf-8"?>
<!-- Generator: Adobe Illustrator 27.2.0, SVG Export Plug-In . SVG Version: 6.00 Build 0)  -->
<svg version="1.1" id="Calque_1" xmlns="http://www.w3.org/2000/svg" xmlns:xlink="http://www.w3.org/1999/xlink" x="0px" y="0px"
	 viewBox="0 0 1107.5 769" style="enable-background:new 0 0 1107.5 769;" xml:space="preserve">
<style type="text/css">
	.st0{fill:#1C1C1C;}
	.st1{fill:#FFFFFF;}
	.st2{fill:none;stroke:#1C1C1C;stroke-width:2;stroke-miterlimit:10;stroke-dasharray:15,12;}
	.st3{fill:none;stroke:#1C1C1C;stroke-width:2;stroke-miterlimit:10;stroke-dasharray:20,15;}
	.st4{fill:none;stroke:#1C1C1C;stroke-width:2;stroke-miterlimit:10;stroke-dasharray:16,15;}
</style>
<g id="Calque_2_00000071534977530674971940000003506917926577271429_">
</g>
<g id="Calque_3">
	<path class="st0" d="M904.1,385.4c0,194.9-158,352.9-352.9,352.9s-352.9-158-352.9-352.9s158-352.9,352.9-352.9
		S904.1,190.5,904.1,385.4"/>
	<path class="st0" d="M279.4,364.7C201.1,358.8,72.1,392.2,0,432.3l72.9,63.3l-27,98.5c0,0,203.8-75.6,279.4-69.4L279.4,364.7z"/>
	<path class="st0" d="M784.2,529.5c75.6-6.2,279.4,69.4,279.4,69.4l-27-98.5l72.9-63.3c-72.1-40.1-201.1-73.5-279.4-67.6
		L784.2,529.5z"/>
	<path class="st0" d="M972.8,496.7c-277.4-81-567.8-81-845.2,0l-35-157.5c300.3-87.8,614.8-87.8,915.2,0L972.8,496.7z"/>
</g>
<g id="logo">
	<path class="st1" d="M255.2,389.5c-58-4.4-153.6,20.4-207,50.1l54,46.9l-20,73c0,0,151-56,207-51.4L255.2,389.5z"/>
	<path class="st1" d="M852.2,389.5c58-4.4,153.6,20.4,207,50.1l-54,46.9l20,73c0,0-151-56-207-51.4L852.2,389.5z"/>
	<path class="st2" d="M237,407.4c-45.7-3.4-121.2,16.1-163.3,39.5l42.6,37l-15.8,57.6c0,0,119.1-44.1,163.3-40.5L237,407.4z"/>
	<path class="st2" d="M870.5,407.4c45.8-3.4,121.2,16.1,163.3,39.5l-42.6,37l15.8,57.6c0,0-119.1-44.1-163.3-40.5L870.5,407.4z"/>
	<path class="st1" d="M868.2,384.5c0,175.1-141.9,317-317,317s-317-141.9-317-317s141.9-317,317-317S868.2,209.5,868.2,384.5"/>
	<circle class="st3" cx="551.2" cy="384.5" r="297.5"/>
	<path class="st0" d="M631.9,245.7c0.4-0.4,0.9-1,1.4-1.4C632.3,245.8,631.7,246.6,631.9,245.7"/>
	<path class="st0" d="M627.5,245.7c2.8-2.9,6.7-6.7,10.5-10.1l1.6,1.4c-2,2.6-4.1,5-6.3,7.3c1.2-1.9,3-5,5.1-8.2l0.8,0.6
		C634.8,241.5,629.9,246.3,627.5,245.7"/>
	<path class="st0" d="M626.9,243.6l5.7-6.3C630.5,241.8,629.7,240.2,626.9,243.6"/>
	<polygon class="st0" points="631.2,242.9 631.9,243.9 628.3,246.9 	"/>
	<path class="st0" d="M438,486.8c-0.5,0.9-1,1.5-1.8,1.1L438,486.8z"/>
	<path class="st0" d="M443,467.1c0.2-1.8,0.2-3,0.3-4C443.4,464.4,443.3,465.8,443,467.1"/>
	<path class="st0" d="M439.4,504.9l-0.4-3.6C439.2,502.5,439.4,503.7,439.4,504.9"/>
	<path class="st0" d="M534.7,413.2c2.2-2.5,4.4-4.8,5.9-6.6C538.5,412.6,536.5,412.2,534.7,413.2"/>
	<path class="st0" d="M462.8,378.4l-0.9-0.9C462.4,376.6,462.9,376.2,462.8,378.4"/>
	<path class="st0" d="M458.9,462.3c-0.5,0.1-1-0.1-1.3-0.5c0.1-0.3,0.1-0.7,0.2-1L458.9,462.3z"/>
	<path class="st0" d="M443.5,521.5c0.1,0.1,0.1,0.1,0.1,0.2l0.3,4.2C443.4,524.5,443.3,523,443.5,521.5"/>
	<path class="st0" d="M466,351.5c0.6-1.2,1.4-2.3,2.3-3.2C467.7,350.8,466.7,352,466,351.5"/>
	<path class="st0" d="M443.3,462.6L443.3,462.6c0,0.1,0,0.4,0,0.5C443.3,462.9,443.3,462.8,443.3,462.6"/>
	<path class="st0" d="M458.4,490.1c0.1-1.5,0.2-2.9,0.4-4.4C459,487.2,458.9,488.7,458.4,490.1"/>
	<path class="st0" d="M534.7,413.2c-0.6,0.7-1.3,1.4-1.9,2.1C533.2,414.4,533.8,413.7,534.7,413.2"/>
	<path class="st0" d="M620.7,265.4c-1.5,2.2-2.5,2.4-3.3,2.4C618.3,266.9,619.4,266,620.7,265.4"/>
	<path class="st0" d="M332.7,505.7l-0.4,1C332.4,506.4,332.6,506,332.7,505.7"/>
	<path class="st0" d="M369.6,408.7c0.3-0.4,0.8-0.7,1.2-1C370.7,408.6,370.1,408.9,369.6,408.7"/>
	<path class="st0" d="M388.2,311.4c-1,3.4-3,6.3-5.1,9.1c-2,2.6-3.9,5.3-5.6,8.1l2-1.3l-3.6,5l1.6,0.7c-2.7,4.3-4.7,9.6-6.8,14
		s-4,8-5.9,9.1h3l-6.2,8.9l4.1-4.9c-1.1,2.8-2.4,5.9-3.9,9s-3,6.2-4.4,9c-2.8,5.7-5.2,10.3-5.7,11.5l1.3-0.6c-0.2,2-1.5,3.2-2.5,5
		l2-0.9c-2.6,6.4-4.7,12.9-6.4,19.6c-1.8,7.2-4.3,14.2-7.5,20.9c-1.5,5.2,1.5-2.7,2.3-2.5c0.1,3.2-3.3,9.4-4.4,10.6
		c2.8-0.7,4.9-8.8,4.5-2.2c-2.6,3.9,3.1-2.2,0,5.2l-3.9,1.9c-1,4.3,1.9,1.6-0.6,8.1c-3.8,7.1-0.1-10.4-4.7,1.6
		c-1.9,6.2,2.2,15.1-3.3,26.4c-1.9,10.7,6.3-3.9,0.8,10l4.9-8.4c0,2.6,2,1.6-0.7,7.5c-2.4,2.3-4.4,5-5.7,8.1
		c6.6-12.5-0.6,12.6,6.4,1.3l-1.6,4.5c0.3-0.5,0.6-0.6,0.7-0.2l-1.8,6.1c1.9-3.5,5.1-12.4,5.9-7.5l-2.4,9c2.4-1.8,2,1.6,3.4,1.5
		l11.7-24.8c-1.3,0.7-3.2,4.2-3.7,2.5c1.5-7.2,3.6-5,4.5-11.9l-2.2,2.4c0.7-0.4,1.1-1.2,0.8,0.3c0.1,2.5-1.2,3.2-2,3
		c-0.9-2.8,2.4-9,4.2-10.5c2.7-8.4-2.3-2.7-2.2-4.7c4.2-3.4,4.7-14,7.8-18.7l-2.9,2.7c0.1-7.1,3.9-12.1,5.8-15.6l-1.9,0.9
		c3.5-8.7,0.3-14.8,7.8-19.6l-1.3,0.6c0.9-3.8,2-9.6,4.8-12.4c-0.6-0.3-1.1-1.2-0.7-2.7c1.3-0.6,2-2,2.5-3.8s1-4.3,1.9-7
		c-1.9,3.3-4,1.1-6.1,4.6c0.7-9.1,5.8-6.3,8.5-13.1c0.4-4.6-2.9,3.1-4.2,3.7c1.4-2.5,2.4-5.2,3-8c0.7-2.8,1.2-5.6,1.8-8.2
		c1.1-5.3,2.5-9.9,6.4-12.1c-0.2,1.7-0.2,3.4-0.4,5.1c2.8-3.7,3.9-5.8,3.2-5.6c-0.2,0.9-0.9,1.6-1.8,1.9c1.6-6.7,4.7-11.1,8-15.5
		c1.6-2.2,3.5-4.2,5.1-6.6c1.8-2.5,3.3-5.3,4.5-8.1c-1.4,0.5-2.5,2-3.3,1.8c1.9-6.1,7.3-3.1,10.2-13l-2,1.2c1-3.3,3.6-4.7,3.7-4.1
		c-1-0.6-0.8-2.1-0.1-4.1c0.4-1,0.9-2.1,1.5-3.4c0.6-1.2,1.4-2.5,2.1-3.9c3-5.4,6.2-11.7,5.5-16.3c2.4-1.5,5.9-5,8.9-8.6
		c0.6-0.8,1.3-1.6,1.9-2.4c0.5-0.6,0.9-1.2,1.3-1.7c0.7-0.9,1.2-2,1.5-3c0.2-1.6,0.2-2.5-0.1-2.8s-0.9-0.2-1.5,0.1
		c-0.6,0.3-1.3,0.6-2,0.9c-0.6,0.1-1.1,0-1.2-1c1.1-1.6,2.5-2.9,4.1-4c1.9-1.5,3.4-3.4,4.4-5.6c0,1.4-0.2,2.8-0.5,4.2
		c-0.4,1.6-0.7,3.3-0.9,4.6c-0.3,2.6,0.3,3.5,2.5,1.6c0.1-1,0.2-2,0.4-3c-0.5,1-1,2.7-1.7,3.2c-0.9,0-0.9-0.8-0.5-1.9
		s0.8-2.2,1.1-3.3c2-2.6,4.1-4.8,6-6.9c-0.4,5.4-3.1,8-3.4,9.6c0.9-1.5,1.9-3.4,3.1-5.8s2.5-5.1,4-7.9c1.4-2.6,2.9-5,4.6-7.4
		c1.4-2,2.7-3.4,3.3-3.3l0.8-2.9c0.5,0,1.1-0.4,1.7-1.2c0-0.1,0,0,0,0.1v0.4c0,0.1,0,0.2,0,0.3s0.1,0.1,0.3,0
		c0.6-0.5,1.8-2.9,2.2-3.1c0.2-0.1,0.2,0.3-0.1,1.7s-1,3.8-2.1,7.4c0.2,1.2,1.2-1,2-2.9s1.6-3.4,1.3,0.5c-0.1,1.4-0.8,2.8-1.8,3.8
		c-0.4,1.6-0.6,3.2-0.6,4.8c0.1,0.6,0.4,0.6,0.6,0.6s0.4,0.2,0.2,1.2c-0.4,2-0.9,4-1.5,6c1.2-2.1,2.4-4.3,3.6-6.7
		c-0.9,3.9-2,7.8-3.1,11.4s-2.2,6.9-3.2,9.7c-1,2.8-1.8,5.2-2.3,7.3c-0.3,1-0.5,2-0.6,3c-0.1,0.5-0.1,0.9-0.1,1.4v0.9v1
		c0.6-0.2,1.2-0.6,1.4-1.3c0.2-0.4,0.4-0.6,0.5-1s0.3-0.8,0.5-1.2c0.5-1.7,1.2-3.4,2.2-5c-0.6,1.6-1.2,3.3-1.7,5l-0.3,1.2
		c-0.1,0.4-0.2,0.8-0.3,1.3c-0.2,1-0.4,2-0.5,2.9c-0.6,4-1.1,8.1-1.4,12.2c-0.6,8.2-1.1,16.4-2.7,22.7c-1.5-4-4.9,5.7-5.7-2.7
		c3-1.9,1.5-5.9,2.2-10.3c-6.9,6.6,0.4,30.2-5.1,32l2.1,2.1c-0.5,2-2.5,6.9-3,3.4c0.1,4.8,0.3,9.6,0.4,14.4c1-2.5,2.6-6.3,3.8-9.9
		s1.8-7.1,0.7-8.8c2.7-3.9,1.1,6,4.1,2.6c-4.4,9.2,1.1,6-0.4,15.8c-2.9-4.7-5,9.5-6.5,9c0.4,3.3-1.5,10.4-2.8,13.1
		c-0.6,5.7,1.3,19,0,28.2c1.1-3.5,2.6-8.9,4.7-8.4c-1.3,4.5-1.5,9.4,0.9,10.4c2.5-7.9,1.1-9.2-0.4-10.4s-3.2-2.1-1.5-9.3
		c2.9-3.5,3.7-7.4,4.9-14.8c1.3,3.5,2.1,2,3.9,3.5c-3.1,4.4-3.5,10.3-3.6,16.6s0.4,12.9-1.3,18.8c-1.8,5-5.3,1.1-6.1,12.5l-1.5-9.9
		c1.4,10.9-1.7,2.5-2.6,11.5l1.9-3.5c0.2,5.5-0.1,7.5-1.5,10.5l2.9-4.6c0.3,3,0.7,8.4-1,8.5c0.4,0.6,1,0.9,1.7,1
		c-0.5,0.6-0.8,2-0.7,5.4c0.3-2,0.2-3.5,1-3.5c-0.4,6.6,0.4,7.3,1.2,7.5s1.7-0.3,1.6,3.7c0.6-1.3,1.5,1,1.9,3.9
		c-2.2-0.1-3.5,3.9-4.5,8.5s-1.5,9.7-2.7,11.9l0.1-0.1c-0.5,3.7-1,7.4-1.4,11.2c0.3-2.3,1.6,0.1,2.3,3.4l-0.1-0.5
		c1,3.5,4.5-4.5,4.1,6.2c-0.1,1-0.3,1.9-0.4,2.9l-0.1,0.7v0.4v0.5l-0.1,1.9c0-1.4,0.8-0.2,1.2,0.4v5.9c0,0.7,0.1,1.4,0.1,2
		c0.7,1.1,1.4,2.3,1.9,3.5s1,2.4,1.3,3.6c0.3,1.3,0.6,2.6,0.9,3.9s0.5,2.9,0.9,4.2c0.4,1.4,0.7,2.9,1.1,4.4s0.9,2.9,1.5,4.3
		c0.5,1.4,1.1,2.7,1.9,3.9c0.6,1.2,1.4,2.2,2.4,3.2c-1.1-1.4-2-2.9-2.7-4.6c-0.6-1.5-0.8-2.7,0.1-2.6c0.8,1,1.4,2.1,1.9,3.2
		c0.6,1.3,1.1,2.6,1.5,4l-0.1-1.2l1.3,2.8l1.5,2.8c0.5,0.9,1,1.9,1.5,2.8l1.7,2.8c1.1,1.9,2.4,3.8,3.6,5.8c1.5,2.7,2.1,2,3,2.7
		c-0.2-0.7-0.7-1.2-1.4-1.5l-0.2-0.1h-0.1c-0.1-0.1-0.1-0.2-0.2-0.3l-0.7-1.2l-1.4-2.3c-0.7-1.1-1.3-2.2-1.8-3.4
		c-0.2-0.8,0-1,0.9-0.5c0.6-0.1,1.2,0.3,1.9,1c0.4,0.4,0.8,0.9,1.1,1.4l0.1,0.2c0,0,0,0.1,0.1,0l0,0l0.2-0.1l0.4-0.2
		c1-0.5,2.1,0,2.9-0.4l0,0v0.1c-0.2,1.5-0.5,3-1.1,4.3c-0.4,1.2-0.3,1.9,1.4,2.5c0-0.1,0.1-0.3,0.2-0.4c0.3-1.7,1-4.9,1.5-7.4
		s0.6-4.1-0.2-3.3c1.7-2.8,3.8-7.2,6.1-11.6c2.2-4.2,4.6-8.3,7.3-12.2c0.4-1.6,0-1.5-0.5-0.8c-0.5,0.8-1,1.7-1.5,2.5v1
		c-2.6,4.9-2.2-3-5.5,9.2c-0.5-1.6-0.5-3.3-0.1-4.9c0.5-2.1,1.2-4.1,2.1-6c0.9-2.2,2.1-4.6,3.2-7c1.1-2.3,2-4.7,2.9-7.2
		c-2.5,4-4.8,7.5-6.9,10.4c1-5.8,2.4-11.6,4.4-17.2c1.9-5.1,4-10,6.5-14.9c1.2-2.4,2.5-4.8,3.8-7.2l3.9-7c2.5-4.5,4.8-9,6.7-13.1
		c-1.1,5.4-3.9,9-0.9,9.7c2.9-4.9,4.1-7,5.2-9.2s2.1-4.4,4.7-9.4l-0.5,0.8c0.5-3,2.3-6,3.8-8.8s2.9-5.4,2.5-7.7
		c-2.6,1.5-2.2,8.1-5.3,6.8l6.4-12.7c-3.7,3.2-6.5,12.7-9.1,17.5c-1.5,3.6,3.7-7,4.9-4.3c-5.6,12-8.9,13.9-14.5,18.5
		c-1.9,1.4-1.9-0.2-1.2-2.4c0.7-2.1,1.5-4.1,2.4-6.1c3.8-3.6,7.1-7.8,9.7-12.3c3.3-5.3,6-11,8-17c0.3-2.6,0.6-5.1,0.9-7.6
		c5-4.8,7.9-0.3,12.7-11l-3.2,2.3c0.3-1.9,0.8-3.7,1.6-5.4c-3.5,3.9-7.4,8.1-10.8,11.5c-0.2-3.9,2.4-8,5.7-12.2s7.5-8.4,10.1-12.6
		c-0.7,0.2-2.4,3.2-3.8,3.6c3.2-6.7,7.1-13,11.8-18.7l6.4-8.2c1-1.3,2-2.6,2.9-3.9s1.8-2.5,2.5-3.7c0.4-2.5-1-0.6-2.6,1.5
		s-3.5,4.5-4.1,2.9c3.7-4.8,5.2-11.7,8-12c-4.2,0.6,6.6-12.1-1.8-3.7c1.2-2.4,2.4-4.9,3.8-7.3c1.3-2.4,2.8-4.8,4.3-7.2
		c3-4.8,6.1-9.5,9.4-14.2c6.7-9.2,13.7-18.3,20.5-26.9c-1.4,0.3-2.1-0.1-2.2-1.3c-2.2,3.5-4.7,6.9-7.3,10.1c-2.6,3.3-5.3,6-7.4,7.1
		c1.1-5.1,8-8.6,7.9-10.3c-2.1,1.6-4.6,5.9-6.1,5c1.7-6.4,6-8,8.6-11.6l-0.6,2.5c4.7-5.2,7-6,9-7.2s3.7-2.6,7.4-8.9
		c1.2-5.6-1.4-0.9-3.6-2.2c2.8-2.3,6.6-13.2,10.9-14.7c-1.6,2.5-3.2,5-4.8,7.6c2-2.4,3.8-4.9,5.6-7c1.5-2,3.2-3.9,5-5.7
		c-0.9,0-1.7,0.3-2.3,1c3.5-3.6,6.9-9,9.8-10.1l-1.5-2.7c-0.7,3.1-5.5,10.5-7.6,10.9c-1.5-2,4.8-8.6,6.9-11.9
		c-3.5,4.6-7.4,8.9-11.8,12.6c-3.1,2.8-5.7,5.6-9,12.2l2.1-1.6c-1.7,4.4-4.5,8-7.5,11.5s-6,6.7-8.1,10.1c0.7-2.2,0.2-3.1-0.8-2.5
		c-2,4-4.1,7.9-6.3,11.7c-2.2,3.8-4.5,7.7-6.9,11.6s-4.9,7.8-7.2,11.9s-4.7,8.4-7,12.9c-1.8,1.3-3.6,2.6-5.4,3.9l1.6,1.4
		c-4.1,9-3.5,0.4-6.5,6.1c1.2-2.1,1.3-1.6,2-1.7c-7.7,8.8-1.5,6.5-5.3,11.8c3.4-1.6,6.8-10.4,7.9-6.5c-7.8,8.7-15.1,25-20.2,24.1
		c-8.3,19.7-23.1,41.8-31.1,57.9c-0.3,2.6,1.3-1.1,1.5,0.1c-1.6,1.6-2.9,3.6-3.8,5.6c-1.1,2.4-2,4.9-2.8,7.4c-1.6,4.8-2.9,8.9-4,8.4
		c-0.8,3.4,0.3,5.5,0.5,6.6c-3.2,4.2-6,8.8-8.3,13.6l2.3-3.6l0.1,0.6l-3.3,5.1l-0.1-0.3c-0.8,1.6-1.6,3.3-2.4,4.9s-1.5,3.4-2.3,5.1
		c-1.5,3.5-3.1,7-4.7,10.4l-1.2,2.6l-0.6,1.3l-0.3,0.6l-0.1,0.3l-0.1,0.2v-0.1l0,0l0,0l0,0c-0.4,0.6-0.8,1.3-1.2,1.9
		c-0.5,0.9-1.4,1.7-2.4,2c0.9-0.1,1.5,0.6,1.7,1.8s0.4,2.6,1,2.3c-1-0.4-2.2-0.4-3.2,0.1c-0.9,0.6-1.6,1.5-1.9,2.6
		c-0.2,0.5-0.5,1.2-0.7,1.9l-0.1,0.3v0.1c0,0,0,0.1-0.1,0.1l-0.3-0.3c-0.2-0.2-0.4-0.4-0.6-0.5c-0.1,2.2-0.5,3.5-0.1,5.8
		c-0.6-2.1-1-4.3-1.3-6.5l-0.1,2.6c-0.5-0.5-0.8-1.1-1.1-1.7c-0.3-0.8-0.6-1.6-0.8-2.5c-0.3-1.7-0.5-3.4-0.5-5.2
		c0-1.6,0.1-2.8,0.1-3.7c0.1-0.8-0.2-1.5-0.8-2.1c-0.2,1.9-0.9,2.5-2.1,3.7c-0.2-1.1-0.3-2.2-0.4-3.3c0-0.7-0.1-1.3-0.2-2
		c-0.1-1.1-0.2-2.2-0.2-3.4c-0.2-5-0.1-10,0.3-14.9c-0.2,0.6-0.5,1-0.8,1c-0.5-2.9,0.5-6.4,0.9-9.3l-2-0.4c0.3-3.1,0.4-6.3,0.3-9.4
		c-0.1-3.4,0.2-6.9,0.9-10.2c-1.1-1.3-0.7-5.4,0.1-10s1.5-10,1.2-13.9c0.6-3-2.5,6.4-2.2-1.9c4.4-1.1,0.3-10.8,5.1-11.3l-1.5-7.3
		l2.4-1.5c-2.1-3.1-1.5-5.5-0.6-8.2s2.4-5.7,1.9-10.3c-0.5,0.5-0.7,1.4-1.1,0.9c0.6-2.9,1.3-9.7,2.2-4.4c0.2-4.9,2.3-21.4-0.6-14.1
		c1.4-0.5-0.2,6.3-0.8,9.2c-2-0.5-0.8-7.8-2.9-9.8c0.4-0.6,0.7-1.2,1-1.9l-1.2-1.1c2.9-9,1.9-18.5,5.3-25c-0.6-0.4-1-2.1-0.6-5.2
		l2.5,0.1c0.2-3.2,0.5-6.5,0.7-9.8l-4.1,4.3c0.2-10.8,5-18,6.5-26.7c-2-1.3-1.2-5.6-0.3-10.5c0.5-2.5,0.9-5,1.2-7.6
		c0.1-1.2,0.1-2.4,0-3.6c-0.1-0.4-0.1-1.6-0.1-2.5c-0.1-0.9-0.2-1.8-0.3-2.7l-0.6,3l-0.3,1.5l-0.2,0.9l-0.9,3.4
		c0.1-0.9,0.2-1.8,0.4-2.6c0.1-1,0.2-1.9,0.3-2.9c0.3-2.6,0.5-4.9,0.7-7c0.3-4.2,0.5-7.7,0.7-11.1c0.3-8.6,1.3-17.2,2.7-25.7
		c-0.1,4.6-0.3,8.2-0.5,11.5c-0.1,1.6-0.2,3.1-0.3,4.6s-0.1,2.9-0.2,4.4c-0.1,3-0.2,6.3-0.2,10.8c0,2.3,0,4.9,0,7.8v6.5v0.2v0.4
		c0,0.5,0.1,1,0.2,1.6c0-0.5,0-1.1,0-1.6V292v-0.4c0-0.5,0.1-1,0.1-1.5c0.1-1.9,0.3-3.8,0.5-5.7c0.3-3.7,0.7-7.4,1.1-10.9
		c0.4-3.6,0.9-7.1,1.4-10.7s1-7.3,1.6-10.9c1.1-7.4,2.1-14.8,2.9-22.1s1.4-14.4,1.5-20.7c-0.8,2.2-1.5,5.5-2.2,7.6s-1.2,3-1.5,0.6
		c1.7-5.2,2.4-12.1,3.1-17.8s1.2-10.3,2.7-11.8c-0.1-6.9-3.2-0.6-3.1-4.5l0.4-2.1c-0.3,0-0.7,0.1-1,0.2l-0.5,0.2
		c-0.1,0-0.2,0.2-0.4,0.3l-0.4,0.3l-3.3,2.9c-2.2,2-4.6,4.1-7.1,6.4l0.1,0.6c-2.2,3.3-4.3,6.4-6.3,9.3l-2.9,4.2l-2.8,3.9
		c-3.5,4.9-6.8,9.2-10.1,13.3c-1.6,2-3.2,4-4.9,5.9l-2.4,2.8l-1.2,1.4l-0.6,0.7l-0.6,0.8c-3.3,4.2-6.7,8.4-10.1,12.7
		s-7.2,8.9-10.8,13.3c-0.9,1.2-1.9,2.4-2.8,3.6s-1.8,2.5-2.7,3.8l-0.7,0.9l-0.3,0.5l-0.2,0.2l-0.8,1l-1.5,2.1c-2,2.8-4,5.6-5.8,8.6
		s-3.5,6.2-5,9.4l1.5,0.2l-5.3,5.2c4-4.2,0.3,3,1.1,3.9c-3.8,4.9-7.5,9.8-11.3,14.8C383.6,315.3,386.5,315.6,388.2,311.4
		 M465.1,345.7l-0.5,4.2c0.1,0.9,0,1.8-0.3,2.7l0.3-2.7C464.5,347.7,463.5,346,465.1,345.7 M530.2,394.2c2-1.3-1,2.8-1.6,4.1l3.5-6
		C532,391.2,530.9,393.4,530.2,394.2 M448.8,344.6l-1.5-2.5l1.6-2.9L448.8,344.6z M454,285.6l-0.8,2.5l-0.4,1.2l-0.2,0.6l-0.2,0.7
		l-0.3-0.5l1.5-4.7L454,285.6z M471.7,197.5c0.2-0.2,0.5-0.3,0.7-0.4C472.2,197.4,472,197.5,471.7,197.5c-1.6,1-3.6,4.2-5.2,6.6
		s-2.9,4-3.6,2.5c3.2-6,5.2-8.4,6.4-9.2S471,197.6,471.7,197.5 M464.1,324.6c-0.5,1.4-0.7,2.9-0.7,4.4c1.1-1,2.9-4.8,3-1.9
		c-1.4,1.9-2.2,8.7-3.9,8.7C464.8,330,460.4,325.4,464.1,324.6 M456.4,464.9l-0.2-1.5l-1.3,5.5L456.4,464.9z M455.2,490.4
		c-2.1,3.1-1.4,10.8-1.3,16.1c2,1.1,3.6-4.3,3.1-10.5C458.4,488.7,454,493.4,455.2,490.4 M465.8,273.7c-0.6,1-1.2,1.9-1.8,2.8v-1.8
		l-1.8,7.8c-0.3-2.1-0.2-4.3,0.1-6.4c0.3-2.1,0.8-4.2,1.4-6.2c1.2-4.2,2.9-8.6,3.5-11.8c-0.2,1.2-0.6,3.3-1.2,5.4s-1.1,4.4-1.5,6.2
		c-0.4,1.3-0.6,2.7-0.5,4.1C464.2,274.7,464.7,274.8,465.8,273.7 M461.4,530.9c0.1,0.7,0.3,1.5,0.4,2.3c0.2,0.8,0.4,1.7,0.6,2.6
		c0.5,1.8,1.1,3.7,1.7,5.6s1.2,3.7,1.6,5.3c0.4,1.2,0.6,2.5,0.5,3.8c0-3.7-0.6-7.3-1.6-10.8c-0.4-1.5-0.8-2.8-1.2-3.8
		c-0.2-0.7-0.5-1.4-0.8-2C462.1,533.6,461.7,532.7,461.4,530.9 M458.6,541.5c-0.6-1.9-1-3.9-1.3-5.8c-0.1-0.8-0.2-1.6-0.3-2.3
		c-0.1-0.7,0-1.4,0-2.1c0-1.4,0.1-2.7,0.2-4.2s0.3-3.1,0.6-4.8c0.6,0.8,0.9,1.8,1,2.8c0.1,1.2,0.1,2.4,0,3.5c-0.1,2.1-0.6,4.1-1.5,6
		c0.2,1.1,0.4,2.2,0.8,3.3c0.3,0.6,0.5,0.7,0.8,0.7c0.5-0.1,0.9-0.8,1.5-0.1C459.9,539.5,459.3,540.5,458.6,541.5 M460.9,521.7
		c-0.3-0.3-0.6-0.6-0.8-0.9c-0.7-0.1-1.8,0.7-2.5,0.5c-0.3-0.1-0.6-0.4-0.6-1.1c0-1.1,0.3-2.2,0.7-3.2c0.7,1.4,1.5,2.6,2.4,3.8
		C460.4,520.8,460.8,521,460.9,521.7 M474.2,512.6c-0.4,0.3-0.9,0.6-1.4,0.8C473.4,512.2,473.9,512.2,474.2,512.6l0.6-0.4l0.3-0.2
		l0.1-0.1l0,0l0,0l0,0l0,0l0.1-0.1l0.2-0.3C474.9,515.9,474.9,513.3,474.2,512.6 M464.1,530.7c-0.5-0.8-0.8-1.7-1.2-2.5
		s-0.7-1.7-1.1-2.5C461.2,527.8,462.2,529.9,464.1,530.7 M476,515.1c-0.4,1.2-1.1,3.5-1.7,5.4c-0.2,1-0.6,1.9-1,2.8
		C472.6,520.6,474.7,516.2,476,515.1 M571.8,332.6l-3.2,5l-0.3-3.5L571.8,332.6z M538.8,393.8l-0.2-1.8l1.8-3
		C539.8,390.6,539.3,392.2,538.8,393.8 M510.1,451.1c-0.3-0.5-0.8-0.6-1.5-0.3c-0.4,0.7-1,1.3-1.7,1.6c0.4-0.7,1-1.3,1.7-1.6
		c1.6-2.3,2.6-4.8,3.1-7.5c-1.4,0.5-2.9,4.1-4.2,5.2c0.4-6.4,12.6-15.1,4.7-14.7c1.8-1.9,7.3-8.7,7-5.5c-2.1,3.8-3.9,7.7-5.5,11.7
		C512.3,443.6,511.1,447.3,510.1,451.1c0.2,0.7,0.1,1.5-0.2,2.1C509.9,452.5,509.9,451.8,510.1,451.1 M477.2,531.7
		c-1,2.1-1.5,2.8-1.8,2.9c-1,1.2-1.9,1.3-2.1-0.8c1-1.4,1.4-1.2,1.5-0.7c0.2,0.6,0.2,1.6,0.5,1.5
		C476.2,533.7,476.8,532.7,477.2,531.7 M471.7,547.4c1.1-1.7,2.3-3.6,3.5-5.7c-0.7,0.5-1.4,1-2.1,1.4c0.9-1.1,1.9-2.3,2.9-3.7
		s2.1-2.9,3.3-4.5c-0.9,4-2.4,7.8-4.4,11.3C473.3,548.6,472.1,548.9,471.7,547.4 M471,553.2c-0.3-0.7-0.7-1.4-1-2.2
		c0.4,0.5,0.8,0.9,1.3,1.3L471,553.2l0.2,0.4l-1.2,2.6c-0.7,0.8-1.5,1.8-2.2,2.8l-0.5,0.8l-0.3,0.4l-0.1,0.1c0,0,0,0.1-0.1,0
		l-0.2-0.3l-1.7-2.5l1.7,2.4l0.2,0.3c0,0.1,0.1,0,0.1,0l0.1-0.1l0.3-0.4l0.5-0.8c0.7-1.1,1.4-2.2,2.1-3.2L471,553.2z M448.1,434.8
		c-2.8-2.5-3.9,0.4-4.6,4.3s-1,8.8-2.4,10.1c1.9,0.6,4.9,5.6,4.9-7.4c1.9,11.3-3.8,7,1,13.8c-0.3-5.4,1.2-11.9,1.4-12.8l0.2,6.3
		C452,445.5,446.8,439.3,448.1,434.8 M450.3,366.4l0.7-8.3l-1,7.9L450.3,366.4z M427.8,275.4c0.3,0.1,0.3,0.9,0.2,1.8
		c-0.1,0.5-0.2,1.1-0.3,1.6c-0.2,0.6-0.4,1.2-0.6,1.8c-1.2,2.7-2.9,5.5-4.7,5.9c1.3-2.4,2.7-4.8,3.8-6.9
		C427.2,277.7,427.8,276.3,427.8,275.4 M385.2,352.5l5-8c2,3-3.6,7.5-5,11.8C383.2,357,385.6,354.2,385.2,352.5 M361.5,408.7
		l-1.5,2.6l4-1.8L361.5,408.7z M366.8,406.3c0.6,2.2,3.5-3.5,3.9-4.9L366.8,406.3z M350.4,458.7l1.1-3.8l-3.7,2.5L350.4,458.7z
		 M349.5,451.8c2.1-0.2,4.5,1,6.2-7.9c-1.8-1-2.6,1.3-3.7-2.7c-1.5,2.6-1.5,5.2-1.8,6.7c1-1.8,1-4.3,2.4-4.4
		C352.3,446.5,351.2,449.4,349.5,451.8c-0.9,0.1-1.7,0.6-2.2,1.4C347.9,453.4,348.7,452.8,349.5,451.8 M358.6,420.4
		c0.2-0.9,0.2-1.9,0.1-2.8l0.7-0.3C359.7,418.4,359.4,419.6,358.6,420.4c-0.2,1.3-0.5,2.8-0.8,4.4c1.3,1.5,4.5-3.8,6-5
		c-1.5,2.6-3.9,4.4-4.3,8.4c0.6-0.3,0.8,0.3,1.6-2l-1.5,5.2c-4.4,4.9-3-0.8-1.8-6.5c-0.4-0.6-0.6-1.3-0.5-2
		C357.4,421.9,357.9,421.1,358.6,420.4 M340.4,459.9l1.4-2.6c1.1-1.2,1.5-0.1,2.1-0.4C342.7,460.1,340.1,464,340.4,459.9
		 M410.4,297.3c-0.5,2,3.5-1,5.2-5l1,3.3c-1.5-0.8-5.7,7-6.4,7.8C407.4,303.6,410,301.1,410.4,297.3 M454.4,337.6
		c-3.4,1.3-2.3,12.7-3.3,15.1c-0.2-3.8-0.1-7.6,0.3-11.3C451.8,337.8,452.8,335.5,454.4,337.6 M454.1,357.1c-0.3,3.1,0,4-1.6,3.5
		c-0.8,1.4-0.1,3.9-0.9,5.4C450.7,359.9,453.2,360.5,454.1,357.1c0.1-0.8,0.2-1.7,0.4-2.8C454.5,355.2,454.4,356.2,454.1,357.1
		 M467,227.7c1.2-3.9,2.5-7.9,3.7-12.1l0.6-7.7C469.8,214.9,468.4,221.5,467,227.7 M427.6,259.4c0.5,0.4-0.7,2.7-2.1,4.9
		c-1.1,1.9-2.5,3.6-4,5.2c1.6,0.6,5-4.5,8-8.4c0.7-0.7,1.4-1.5,1.9-2.4c-0.6,0.6-1.2,1.4-1.9,2.4c-1.2,1.1-0.9-1-1.2-1.7l1.3-2.8
		l-4.6,5.7L427.6,259.4z M365.6,370.2c-0.5,4.6-1.2,4.9-2.8,7.5C362.5,376.5,363.9,372.8,365.6,370.2 M458.1,216.3
		c-1.1,1.5-2.1,3.1-2.8,4.8c-0.2,0.8,0,1,0.3,1.1c0.6,0.3,1.4,0.4-0.8,3.8l3.2-4.3c-0.8,1.6-1.8,3.1-3,4.6c-0.6,0.6-0.8,0.4-1,0
		c-0.3-0.7-0.4-1.9-2.3,1l2.6-3.9c2.9-6.4-3.2,2.2-3.2,0.1c1.7-2.6,3.6-5.1,5.8-7.3C458.7,214.6,459.6,214.2,458.1,216.3
		 M361.7,376.2c-1.2,7.5-4,4.9-6,9C356.5,379.1,359.2,381.2,361.7,376.2 M414.4,266.7l0.2-0.9l-3.2,4.1l-2,2.3v0.6l2-2.3l0.2-0.3
		c0.1-0.1,0.1-0.1,0.3-0.4l0.8-1.1L414.4,266.7z"/>
	<path class="st0" d="M374.8,391.5c-0.3,1.3-0.8,2.5-1.5,3.7C373.8,393.9,374.3,392.7,374.8,391.5"/>
	<path class="st0" d="M440.8,374.1c0.5,0.2,0.6,0.9,0.8,1.7C441.3,375.7,441,375.2,440.8,374.1"/>
	<path class="st0" d="M438.8,388.4c0,0.2,0,0.4,0,0.5s-0.1,0.3-0.2,0.4L438.8,388.4z"/>
	<path class="st0" d="M620.1,270.2c3.5-1.3-1.4,2.6-2.8,4.6C618.7,272.9,617.9,271.2,620.1,270.2"/>
	<path class="st0" d="M606.2,284.2c1.7-1.2,3.2-2.7,4.4-4.4C609.5,281.6,608,283.1,606.2,284.2"/>
	<path class="st0" d="M615.8,271.6c-1.5,2.9-3.2,5.6-5.2,8.2C611.9,277.8,612.4,275.5,615.8,271.6"/>
	<path class="st0" d="M578.6,328.5c2.7-1.9,5.2-7.2,5.2-7.2c-5.6,11.5,3.5-0.9,4.9-1.2C584.2,326.6,582.8,325.7,578.6,328.5"/>
	<path class="st0" d="M569.3,342.7c0.6-1,1.2-2.1,1.6-3.2C570.6,340.7,570.1,341.7,569.3,342.7"/>
	<path class="st0" d="M568.1,347.4c-2.5,3.6-4.7,4.2-6.7,5.4c1.8-5.2,5.6-6.9,8-10.1C567.8,345.4,566.1,348,568.1,347.4"/>
	<path class="st0" d="M512,471.1c0.6-0.9,1.6-3.1,2.4-2.8l-3,6.7C509.6,477.5,511.5,472.5,512,471.1"/>
	<path class="st0" d="M497.2,494.2c-2.5,5.4,0.8,3.4-0.8,6l-2.5-1.4C495,497.3,496.1,495.8,497.2,494.2"/>
	<path class="st0" d="M485.1,485.4l1-1.5c-0.3,0.6-0.6,1.2-0.9,1.8L485.1,485.4z"/>
	<path class="st0" d="M488.4,523.2c0.8-0.6,1.6-1.3,2.5-2l1.3-1.1l0.7-0.6l0.2-0.1c0.1-0.2,0.1-0.1,0.1-0.1h0.1l0.3-0.2l-0.1,0.2
		l-0.1,0.1c0,0,0,0,0,0.1v0.1l0,0v0.1l-0.3,0.6c-0.2,0.4-0.4,0.8-0.6,1.1c-0.3,0.6-0.7,1.1-1.1,1.6c-0.4,0.6-1,1.1-1.7,1.4
		C488.6,524.5,488.2,523.8,488.4,523.2"/>
	<path class="st0" d="M477.4,557.8c0.8-1.1,1.6-2.3,2.4-3.5l-6.5,14.6L477.4,557.8z"/>
	<path class="st0" d="M460.4,562.2h-0.8l-2.5-4.2c-0.8-1.4-1.5-2.8-2.3-4.2C456.5,556.6,458.4,559.4,460.4,562.2"/>
	<path class="st0" d="M453.4,267.2c1.6-2.7,1.9-1.4,1.8,0.9s-0.5,5.4-0.3,6.5c-1.8,0.6-1.3-1.2-0.8-3.5c0.3-1.1,0.5-2.2,0.5-3.2
		C454.7,266.9,454.3,266.5,453.4,267.2"/>
	<path class="st0" d="M377.6,381.5l5-10.1C380.1,379.9,381.6,373.7,377.6,381.5"/>
	<path class="st0" d="M562.4,563.7c-0.4,0-0.8,0.1-1.2,0.2C562.2,563.4,562.7,563.2,562.4,563.7"/>
	<path class="st0" d="M547.6,568.4c3.7-1.6,9.5-4,13.6-4.6C558.1,565.6,550,571,547.6,568.4"/>
	<path class="st0" d="M565.1,568.3l-5,1C562.5,567.3,562.6,568.9,565.1,568.3"/>
	<polygon class="st0" points="562.2,566.2 562,565 564.9,565 	"/>
	<path class="st0" d="M754,414.4c-0.6,0.3-1.4,0.2-1.9-0.3L754,414.4z"/>
	<path class="st0" d="M763.2,406.5c0.4-0.7,0.7-1.3,1.1-2C764.1,405.2,763.7,405.9,763.2,406.5"/>
	<path class="st0" d="M749.9,423.3l0.8-1.8C750.6,422.1,750.3,422.7,749.9,423.3"/>
	<path class="st0" d="M663.1,509.9c-2,0.2-4,0.5-5.4,0.7C660.4,508,661.7,509.4,663.1,509.9"/>
	<path class="st0" d="M786.6,354.3l-1-0.4C785.9,353.2,786.3,352.9,786.6,354.3"/>
	<path class="st0" d="M779.2,409.2c-0.4-0.1-0.8-0.3-1.1-0.7c0.2-0.2,0.3-0.4,0.4-0.5L779.2,409.2z"/>
	<path class="st0" d="M747.6,430.8v0.1l-1.3,1C746.5,431.2,747,430.8,747.6,430.8"/>
	<path class="st0" d="M784.1,336.1c0.3-1,0.7-2,1.3-2.8C785.6,335.1,784.9,336.2,784.1,336.1"/>
	<path class="st0" d="M764.4,404.1L764.4,404.1c0.1,0,0,0.2-0.1,0.3C764.3,404.3,764.4,404.3,764.4,404.1"/>
	<path class="st0" d="M771.2,425.4c0.6-0.8,1.1-1.5,1.7-2.3C772.7,424,772.1,424.9,771.2,425.4"/>
	<path class="st0" d="M663.1,509.9l1.7-0.2C664.4,510,663.7,510.1,663.1,509.9"/>
	<path class="st0" d="M573.8,556.5c0.8-0.6,2-0.4,2.6,0.3C575.5,556.9,574.6,556.8,573.8,556.5"/>
	<path class="st0" d="M547.2,265.5l-0.6,0.1C546.7,265.5,547,265.5,547.2,265.5"/>
	<path class="st0" d="M607,261.3c0.3,0.2,0.6,0.5,0.8,0.8C607.3,262.3,607,261.9,607,261.3"/>
	<path class="st0" d="M666,243.3c-2.2,0.1-4.3-0.3-6.2-1.4c-1.8-1-3.7-1.7-5.7-2.3l1.1,1.4c-1.2-0.5-2.4-1-3.5-1.5l-0.2,1.7
		c-1.5-0.4-3.1-0.7-4.7-0.9l-4.7-0.4c-2.9-0.3-5.4-0.7-6.4-2.2l0.5,2.8c-2.1-0.9-4.2-1.8-6.3-2.6c1.2,0.7,2.4,1.4,3.6,2.1
		c-7.3,0-18.2-2.4-19.8-2.3l0.7,1c-1.2,0.5-2.1-0.2-3.4-0.5l1,1.5c-4.2-0.1-8.4,0.3-12.5,1.4c-1.8,0.4-3.6,0.7-5.8,0.9
		c-2.5,0.2-5.1,0.3-7.6,0.1c-3.3,0.6,1.9,0.3,2,1.2c-1.7,1.4-6,0.5-7-0.1c1.2,2.2,6.1,1.1,2.5,3.3c-2.8-0.9,2,2-2.8,2l-2.2-2.8
		c-2.6,0.8-0.3,2.4-4.5,2.6c-4.9-0.7,5.5-4.1-2.3-3.6c-1.9,0.3-3.8,2.3-6,4.2s-4.9,3.6-8.7,3.4c-3,1.3-2,2.3-1.3,3.1
		c0.7,0.8,1,1.3-3.4,1.7c2,0.3,3.9,0.6,5.9,1c-1.3,1.1-0.1,2.4-3.9,2.5c-1.8-1.2-3.9-1.8-6-1.7c4.2,0.3,2.6,1.5,1,2.8
		s-3.3,2.7,0.7,3.4l-2.7,0.5c0.4,0,0.5,0.3,0.4,0.6l-3.6,1c2.4,0.2,7.7-0.7,5.7,2l-5,1.7c1.7,1.3,0,2.4,0.6,3.7
		c5.2,0,10.4,0,15.6,0.2c-0.8-0.9-3-1.2-2.4-2.3c3.9-1.5,3.6,1.2,7.2-0.8l-1.9-1.1c0.4,0.4,0.9,0.5,0.1,0.8
		c-1.2,1.1-1.9,0.2-2.1-0.6c1-1.9,5.1-1.4,6.4-0.4c4.9-0.9,0.6-3.2,1.6-3.9c3,2.5,8.3-1.1,11.6-0.1l-2.2-1.7
		c3.6-2.6,7.2-1.1,9.5-0.6l-1-1.4c2.7-0.1,4.6-1.4,6.5-2.1s3.5-0.7,5.7,1.9l-0.6-1c1.3-0.4,2.6-0.7,3.9-0.9c1.3-0.3,2.7,0,3.8,0.7
		c0-0.8,0.6-1.4,1.3-1.6c1.2,2.1,3.5,0.5,6.8,0.1c-2.2-0.6-1.5-3.2-3.8-3.9c5.2-2.7,4.7,3,8.9,3.1c2.6-1.3-2.2-1.6-2.8-2.6
		c3.3,0.9,6.7-0.6,9.9-1.5s6-1.3,7.9,1.6l-3,1.5c2.5,1.4,3.9,1.5,3.7,1c-0.8,0.1-1.1-0.4-1.3-1c1.8-0.5,3.7-0.5,5.4-0.1
		c1.6,0.4,3.1,1.1,4.6,1.9c2.9,1.6,5.8,3.4,9.7,3.5c-0.4-1.1-1.5-1.6-1.4-2.4c3.8-0.4,2.6,5.7,8.7,4.7l-0.9-1.4
		c2.1-0.3,3.1,1.6,2.8,1.9c0.5-2.2,3.6-1.5,7.1-0.8c1.8,0.5,3.6,0.7,5.4,0.7c1.8,0.1,3.5-0.4,4.9-1.5c1.6,2,3.6,3.7,5.8,5
		c2.4,1.4,4.8,2.5,6.2,2.3c4.4-1.3-2-3.9,0.2-5.9c2.8,1,3.2,3.9,7.5,4.7c-0.5,1.2-2.9,1.6-4.3,2.3c-1.4,0.7-1.9,1.6,1.4,3.7l1.5-0.9
		c-1.1,0-2.1-0.3-3-0.8c-1.5-2.2,1.9-1.1,2.7-1.5c1.3,0.6,2.5,1.4,3.7,2s2.5,1.4,3.7,2.1c-0.3,1.4-1.5,1.3-2.8,1.1s-2.5-0.8-2.9-0.6
		c3.1,1,6.9,1.6,10.5,2.6c1.7,0.5,3.4,1.1,5.1,1.8c1.5,0.7,2.9,1.7,4,2.9v-1.2c0.9,1.1,2,2,3.3,2.5c0.8,0.2,1.6,0.2,2.3,0
		c1.4-0.3,2.4-0.4,3.7,3.2c1.5,0.7,1.8,0,2.1-0.6s0.8-1,2.9,0.6c1.1,0.9-0.2,1.2-0.6,1.3c2.1,2.4,3.1,2.3,3.8,2.4
		c0.8,0.1,1.4,0.3,2.7,3.2l1-2.9c0.5,0.8,1,1.6,1.3,2.4c0.4,0.9,0.8,1.8,1.1,2.6c0.7,1.8,1.3,3.5,2,5.2c0.5,1.7,1.1,3.3,1.9,4.8
		c0.4,0.7,0.8,1.4,1.2,2s0.9,1.2,1.5,1.7c0.8-0.8,0.7-1.9,0.3-3.1c-0.5-1.1-0.8-2.3-0.7-3.5c0.3,1.1,0.6,2.2,1.1,3.2
		s0.9,2.1,1.5,3.1c1.1,2,2.5,3.9,3.7,6l1.8,3c0.3,0.5,0.6,1,0.9,1.5c0.3,0.5,0.5,1,0.7,1.5c0.9,1.8,1.6,3.8,2,5.8
		c-1.3-0.6-1.9,0.6-2.7,1.5c-0.3,0.5-0.8,0.8-1.3,0.9c-0.5,0-1.1-0.2-1.9-1.1c2.1-2.2-0.5-3.3-1.3-5.6c-0.9,1.4-0.9,3.2-0.2,4.7
		c0.4,0.8,0.8,1.6,1.3,2.3c0.5,0.8,1,1.6,1.5,2.3s1.1,1.5,1.5,2.2c0.2,0.4,0.5,0.7,0.6,1c0.2,0.3,0.3,0.7,0.4,1
		c0.4,1.3,0.3,2.4-0.9,3l2.4,0.3c0,0.8-0.2,1.6-0.6,2.3c-0.4,0.7-0.9,1-1.5,0.2c0.5,1.1,1,2.3,1.5,3.5s1.1,2.3,1.5,3.5
		c0.8-1.9,1.4-3.9,1.8-5.9c0.5-2.2,0.2-4.1-1.2-4.7c1.6-2.8,2.5,2.7,4.5,0c-0.2,0.6-0.4,1.3-0.5,1.9c-0.1,0.4-0.1,0.8-0.1,1.2
		c0.1,0.6,0.4,1,0.9,1.3c1.5,0.8,2.5,2.4,2.5,4.2c-1.9-1-2.6,0.6-3.2,2.4s-1,3.7-1.8,3.7c0.2,0.5,0.3,1.1,0.3,1.6
		c0,0.7-0.1,1.4-0.3,2.1c-0.3,1.2-0.7,2.4-1.3,3.5c0.2,2.3,0.5,4.5,1,6.8c0.3,1.4,0.4,2.8,0.4,4.3c0,1.3-0.2,2.7-0.5,4
		c1.1-1.8,2.6-4.7,4.7-4.4c-1.3,2.5-1.4,5.2,0.8,5.9c1.3-2.2,1.5-3.5,1.4-4.4s-0.9-1.2-1.7-1.6c-1.5-0.7-3.1-1.2-1.8-5.2
		c1.2-0.9,2.2-2.1,2.8-3.5c0.6-1.7,0.9-3.4,1-5.2c1.7,1.8,2.3,0.9,4.2,1.6c-2.5,2.9-2.8,6.3-2.5,10c0,1.8,0.1,3.8,0,5.6
		c0,0.9-0.2,1.9-0.4,2.8c-0.3,0.9-0.6,1.8-1.1,2.6c-1,1.3-2.3,1.3-3.6,1.8s-2.4,1.3-3.4,4.4l-0.3-2.8c-0.1-0.9-0.3-1.9-0.5-2.8
		c0.4,3-0.1,3.3-0.9,3.4s-1.7,0-2.5,2.2l2.2-1.5c-0.3,2.9-0.8,4-2.5,5.2c1.2-0.5,2.2-1.2,3.3-1.8c0.1,1.7-0.4,4.6-2,4.2
		c0.4,0.5,0.9,0.8,1.5,1c-0.5,0.2-1,0.8-1.5,2.7c0.6-1,0.6-1.8,1.5-1.6c-1.3,3.4-0.8,4,0,4.4s1.7,0.4,0.8,2.5c0.9-0.5,1.2,1,1,2.8
		c-1-0.4-2.1-0.2-3,0.4c-1.1,0.7-2.1,1.5-3,2.4c-1,1-1.9,2-2.8,2.9c-0.7,0.8-1.6,1.4-2.6,1.8h0.1c-1.5,1.5-2.8,3.1-4.3,4.5
		c0.9-0.9,1.4,0.8,0.9,2.6l0.1-0.3c-0.3,2,5.4,0.3,1.4,4.9l-1.3,1l-1.4,1c0.4-0.4,0.7,0.4,0.9,0.9l-2.7,2c0.5,3.2-1.4,4.8-3.5,6.3
		c-1.1,0.7-2.1,1.5-3.1,2.4c-1.1,0.9-1.9,2.1-2.3,3.4c0.7-1.5,2.5-3.3,3-1.7c-0.5,1.2-1.5,2.2-2.8,2.5l0.6,0.1l-2.3,1.7l-2.3,1.7
		c-1.5,1.1-3,2.2-4.6,3.3c1.7,0.4,5.8-4.3,5.3-1.1c0.3,1.3-0.5,2.2-1.6,3s-2.4,1.3-3.1,2c-0.7-1,1-4.4-2-2.1
		c0.1,0.7-1.3,4.1,0.4,3.5c-0.9,0.5-1.8,1.1-2.7,1.7l-3,1.8c-1.8,1.2-3.9,2.1-6,2.7c-0.4,1.1,1.2,0.3,1.7,0v-0.4
		c2-1.1,2.4,1.9,4.7-2.1c1.5,1.2,0.6,2.6-1,4s-4,2.9-5.3,4.4c2.1-0.8,4.3-1.6,6.4-2.5c-1.1,2.8-2.7,5.4-4.8,7.6
		c-2.2,2.2-4.7,4.2-7.3,6c-2.7,1.7-5.5,3.4-8.2,4.9c-2.5,1.4-5,2.9-7.3,4.6c1.8-2.8,4.5-3.6,2.3-5.7c-1.5,0.7-2.6,1.3-3.4,1.7
		c-0.7,0.4-1.4,0.8-2.1,1.2c-1.2,0.8-2.3,1.6-5.1,3.3l0.5-0.2c-1.8,3.2-7.3,3.4-7.6,6.9c2.2,0.6,3-4,5.1-1.3l-3.5,2.3l-3.6,2.2
		c1.6,0.1,3.4-1,5.1-2.3c1.5-1.3,3.1-2.5,4.8-3.6c1.8-1.5-4,2.2-4.4-0.2c1.3-0.9,2.7-1.7,4.2-2.4c1.1-0.5,2.2-0.9,3.3-1.1
		c2.2-0.2,4.4-0.2,6.5,0c3.3,0.5-1.3,4-2.5,4.9c-1.6,0-3.1,0.3-4.7,0.6c-1.6,0.4-3.3,0.9-4.8,1.6c-3.4,1.5-6.4,3.7-9.1,6.3
		c-0.7,1.5-1.5,3-2.2,4.5c-2.3,0-3.6-1.1-5.2-1.8s-3.2-0.8-6,1.2l2.7,0.5c-0.6,1-1.3,1.8-2.3,2.5c1.6-0.2,3.3-0.3,5-0.5
		s3.3-0.3,4.9-0.4c-0.6,2.7-3.3,3.8-6.5,4.5c-1.6,0.3-3.3,0.6-5,0.9c-1.6,0.2-3.1,0.6-4.6,1.1c0.5,0.3,2.4-0.6,3.4,0
		c-7.1,5.2-17.3,5.5-23.5,8c-1.7,2.9,5.4-1.6,5.4,1.3c-1.7,0.5-3.2,1.3-4.6,2.4c-1.3,0.8-2.4,1.4-3.4,0.5c2.9,2.3-7.1,3.9,0.3,3.7
		c-10.7,7.1-24.8,10.4-37.3,13.9c0.9,0.4,1.3,1.4,1.1,2.3c4-1.8,10.2-3.6,13.4-2.5c-1.9,2.8-7.1,0.8-7.5,2c1.7,0.2,4.3-1.1,5.1,0.4
		c-2.6,3.3-5.7,1.7-8.2,2.5l1-1.4c-8.4,1.3-6.5-3.5-14.1,0.9c-2,3.2,0.7,1.5,1.8,3.9c-2.3-0.1-7.2,5.1-10.3,3.5l4.7-2.3
		c-3.7,0.8-6.9,2.2-9.6,2.4c0.4,0.5,1,0.8,1.7,0.7c-3,0.4-6.4,2.1-8.4,1.1l0.3,2.8c1.1-1.8,5.8-4,7.3-3c0.5,2.4-5,3.1-7,4.2
		c9.7-3.3,11.5,0.5,18.7-4.6l-1.7-0.2c4.1-4,10.5-3.2,14.8-5.2c-1,1.1-0.8,2.1-0.1,2.2c8.7-6.3,18.7-9.2,28.9-15.6l4.4,0.8l-0.7-1.9
		c4.8-3.5,2.4,2,5.7,0.1c-1.3,0.7-1.2,0.2-1.7-0.1c7.1-1.1,2.5-3.4,6.2-4.6c-2.6-1.1-6.9,2.7-6.7-0.7c3.6-0.5,7.5-2.3,11-3.5
		s6.4-1.8,8.1,0.1c5.1-3.9,11.4-7.3,17.5-10.4l9-4.5c2.8-1.5,5.5-3,7.8-4.4c0.7-1.5-1.1,0-1.1-0.9c2.6,0,5.2-2.5,7.4-4.7
		s3.8-4.2,4.6-3.2c1.2-1.8,0.8-3.8,0.8-4.7c3.1-0.9,6.1-2.3,8.8-4.1l-2.5,1V493c1.2-0.5,2.3-1,3.5-1.5v0.2
		c7.2-4.9,14.3-12.1,21.9-15.8c-4.4,2.1-1.3-3-3.6-2.2c2.8,0,6-1.7,9.1-4.3c3.1-2.7,5.9-5.8,8.4-9.2c-0.7-0.5-0.8-1.4-1.9-1.1
		l4.2-2.5l-1.2-0.2c1.2-1.7,2.5-3.3,4-4.8c0.8-0.8,1.5-1.5,2.3-2.2l2.2-2.2c1.4-1.3,2.8-2.7,4-4.2c1-1.3,1.8-2.7,2.2-4.3
		c-2.2,2.7-3,2.2-4.3,1.8c3.3-5,6.2-9.7,10.5-15.5c-0.3,0.2-0.7,0.3-1,0.2c0.5-1.8,2.4-3.3,3.6-4.9l-1.8-1.1
		c1.1-1.7,2.1-3.5,2.8-5.3c0.2-0.5,0.5-1,0.7-1.5s0.4-1,0.7-1.5c0.5-1,1.1-2,1.8-2.9c-0.8-1.2,0.6-3.4,2-6.2
		c0.7-1.4,1.5-2.9,2.2-4.3c0.6-1.3,0.9-2.8,1-4.2c0.9-1.8-3.1,3.6-1.9-1.6c2.2,0,2.7-1.7,3-3.4s0.7-3.4,3-3.3
		c-0.4-1.7-0.7-3.4-1.1-5l2.4-0.9c-2.1-2.3-1.5-3.8-0.5-5.6c0.2-0.5,0.5-0.9,0.8-1.4c0.2-0.5,0.5-1.1,0.6-1.6c0.4-1.3,0.4-2.7,0.1-4
		c-0.5,0.3-0.7,1-1,0.7c0.2-1,0.4-2.7,0.7-3.7s0.6-1.3,1.3,0.5c-0.1-1.7-0.1-5.4-0.4-8c0-1-0.2-1.9-0.7-2.7
		c-0.3-0.4-0.7-0.1-1.1,1.3c1.4-0.5,0.6,4.3,0.2,6.3c-2.1-0.1-1.6-5.1-4-6.1c0.3-0.4,0.5-0.9,0.7-1.4l-1.3-0.5
		c0.3-1.5,0.4-3.1,0.4-4.7c0-0.8-0.1-1.5-0.2-2.3c-0.1-0.7-0.2-1.5-0.3-2.2c-0.5-2.7-0.5-5.5,0-8.1c-0.7-0.1-1.5-1-2-3.1l2.4-0.9
		c-0.7-2.1-1.5-4.3-2.3-6.3c-0.8,1.4-1.5,2.8-2.3,4.2c-0.8-1.5-1.3-3.1-1.6-4.8c-0.2-0.8-0.3-1.6-0.3-2.4s-0.2-1.5-0.3-2.3
		c-0.2-1.5-0.3-3.1-0.5-4.6c-0.1-0.8-0.2-1.5-0.4-2.3c-0.2-0.7-0.5-1.5-0.8-2.1c-2.3,0.4-3.4-2.4-4.7-5.5c-1.5-3-3.3-6.6-6.4-7.5
		c0.7,1.4,1.2,3,1.8,4.4c-0.6-1.1-1.2-2-1.8-2.8c-0.5-0.7-1.1-1.4-1.8-2.1c-1.2-1.2-2.2-2.2-3.2-3.1c-0.5-0.5-1-1-1.5-1.5
		c-0.5-0.4-1.1-1-1.6-1.5c-1.3-1.4-2.5-2.8-3.6-4.4c3.2,2.3,4.7,3.6,6.6,5.1c0.9,0.8,2,1.7,3.4,2.7c1.4,1.1,3.4,2.3,5.7,4.3
		c-0.5-0.5-1-1.1-1.5-1.6s-1-1-1.4-1.6c-0.9-1-1.8-2.1-2.6-3.1s-1.5-2.1-2.3-3.1l-2.3-3c-3-4-6.3-7.7-11.1-10.1
		c-0.1,1.2,1.5,3.4-1.2,2.6c-0.1-1.5-2-3.1-3.5-4.3s-2.8-2.2-1.4-2.8c-1.2-0.5-2.6-0.6-3.9-0.4c-0.9,0.3-1.9,0.3-2.9,0
		c-1.2-1.4-2.3-2.9-3.6-4.2l-3.8-4.1v0.6c-2.2-0.5-4.4-1.1-6.6-1.9c-2-0.7-4-1.6-5.9-2.6c-3.8-1.9-7.3-4.1-11-6.3
		c-7.2-4.4-14.7-8.8-23.7-9.8v1.4l-3.8-3c3.1,2.2-1.9,1.3-2.4,2.4l-5.2-2.7c-1.7-0.9-3.5-1.7-5.3-2.5c-0.5,1.1-0.3,3.9,2.5,3.9
		 M781.5,332.8l0.7,2.8c0.3,0.5,0.5,1.1,0.4,1.8l-0.4-1.8C781.4,334.3,780.1,333.6,781.5,332.8 M662,525.4c-1.7-0.4,1.3-1.2,2-1.8
		l-3.8,1.8C660.1,526.3,661.4,525.5,662,525.4 M766.1,338.1l-2-0.7c0.3-0.7,0.5-1.4,0.7-2C765.3,336.2,765.7,337.1,766.1,338.1
		 M749.8,308.1c0.5,1.1,0.9,2.2,1.3,3.3h-0.4c-0.3-1.1-0.8-2.2-1.3-3.2L749.8,308.1z M728.5,271.2c0.2,0.2,0.3,0.4,0.5,0.7
		C728.8,271.7,728.7,271.5,728.5,271.2c-1.9-2.6-4.4-0.6-5-4.3c1.3-0.5,2.8,0,3.6,1.2C727.7,269.2,728.2,270.2,728.5,271.2 M774,321
		c0.1,1,0.5,1.9,1,2.7c0.6-1,0.8-4.1,2-2.4c-0.1,0.5-0.1,1.1,0,1.7c0,0.7,0.1,1.4,0.2,2.1c0.1,1.4,0,2.6-0.7,3
		c0-1.7-0.8-3.3-2.1-4.4C773.2,322.7,772.6,322.1,774,321 M776.2,409.9l0.2-1l-2.4,2.8L776.2,409.9z M768.2,424
		c-0.7,0.2-1.4,0.6-1.9,1.2c-0.6,0.6-1.2,1.3-1.7,2c-1.1,1.5-2.1,3.3-3.2,4.6c1.2,1.7,4.8-0.2,6.5-3.8
		C771.6,424.6,766.2,425.1,768.2,424 M755.1,298l-0.5,1.7l-0.7-0.6l1.6,3.5c-1-0.5-1.9-1.3-2.6-2.2c-0.5-0.8-1-1.7-1.3-2.7
		c-0.6-1.8-0.8-3.7-1.5-4.8c0.7,0.9,1.4,3,2.2,4.4S753.8,299.7,755.1,298 M749.2,451.9c-0.8,0.5-1.7,1-2.6,1.6s-1.9,1.1-2.8,1.6
		c-1.8,0.9-3.2,1.4-3.7,0.7c2,2,6.2-0.8,7.1-2C747.8,453,748.5,452.3,749.2,451.9 M745.1,448.4c3.9-2.9,5.2-2.4,9.5-3.9
		c-0.9,2.3-2.3,3.2-3.6,3.3c-1.1,0.1-2.2-0.4-2.9-1.2c-3,1.8-1.2,2.4-2,4L745.1,448.4z M754.6,449.3c0.3-0.6,0.6-1.2,0.8-1.9
		c0.4-2.7-2-4.9,2.6-5.8l-2.6,5.8C755.3,448.1,755,448.8,754.6,449.3 M726.9,479.7l2.1-0.6C727.5,480.3,727,480.1,726.9,479.7
		l-1.8,0.5C727.6,476.5,726.6,478.7,726.9,479.7 M747.8,456.5c1.3-1.4,2.5-2.9,3.8-4.4C750.3,451.6,748.8,454.9,747.8,456.5
		 M726.1,477c0.8-0.9,2.3-2.5,3.5-3.8s2.1-2.3,1.8-1.9C732.1,472.8,727.8,476.6,726.1,477 M620.3,540.4l3.2-1.4l-0.6,2.6
		L620.3,540.4z M656.1,520.2l-0.3,1.3l-1.8,0.9L656.1,520.2z M688.2,500.1c0.1,0.5,0.5,0.9,1,1.1c0.5-0.2,1.1-0.2,1.6,0
		c-0.5,0.3-1.1,0.3-1.6,0c-1.6,0.6-2.9,1.7-3.8,3.1c1.1,0.5,2.9-1,4-0.9c-0.7,2-3.8,2.6-5.9,3.2s-3.3,1.4-0.5,3.6
		c-1.7,0.2-7,1.3-6.1-0.7c1-0.5,2-1.1,3-1.8c1.1-0.8,2.2-1.6,3.3-2.5C685.1,503.8,686.7,502.1,688.2,500.1c-0.2-0.5,0-1,0.5-1.3
		C688.6,499.3,688.4,499.7,688.2,500.1 M726.4,466.6c0.6-0.6,1.3-1,2.1-1.2c1.2-0.5,2.4-0.6,2.9,0.3c-2.7,1.6-1.9-0.4-2.9-0.3
		C727.7,465.7,727,466.1,726.4,466.6 M732.3,459.8l-2,1.3l-2.1,1.2l2.7-0.6l-6.9,3c0.9-1.8,2.4-3.3,4.2-4.2
		C729.9,459.7,731.5,459.4,732.3,459.8 M732.5,457.7l1.9,0.4l-2.2-0.1L732.5,457.7l-0.4-0.1l3-2.6c1-0.9,1.9-1.8,2.9-2.7
		c-0.9,0.9-1.8,1.8-2.7,2.7L732.5,457.7z M773,389.7c-5.1-3.9-5.3,5.9-8.5,6.5c0.9,0.4,1.8,1.5,2.8,1.6c0.6,0,1.2-0.3,1.5-0.8
		c0.3-0.4,0.6-0.9,0.8-1.4c0.3-0.7,0.5-1.5,0.7-2.3c0,0.4,0,0.8,0,1.2s-0.1,0.7-0.1,0.9c-0.1,0.5-0.2,0.9-0.5,1.3
		c-0.3,0.5-0.7,0.9-1.2,1.3c-0.7,0.5-1,0.8,0.7,3.4c0.5-3.1,3-6.5,3.2-7c-0.2,1.3-0.5,2.5-0.8,3.7c2-0.6,2-2.1,1.6-3.8
		S772.1,390.9,773,389.7 M772.3,349.4l-1-4.8l0.6,4.6L772.3,349.4z M691.6,266.9c-0.1,0.7-1.8,1-3.5,1c-1.8-0.1-3.6-0.7-3.9-2.1
		c1.5,0.3,3.1,0.8,4.5,1C690,267,691.1,267.2,691.6,266.9 M641,255.3c1.8,0.6,3.6,1.1,5.3,1.8c-1.4,2.9-4.8-0.7-7.5-0.4
		C638.1,255,640.1,256.3,641,255.3 M605.2,253.8l-1.8-0.5l1.9,3L605.2,253.8z M607.6,257.8c-1.1,1.4,2.6,2,3.5,1.8
		C610,259,608.8,258.4,607.6,257.8 M576,262.5c0.7-0.2,1.5-0.3,2.2-0.4l-2.3-2.5L576,262.5z M579.3,259c0.7,1.9,0.8,4.5,5.8,2.7
		c0-2-1.4-1.9,0.4-4.5c-1.8-0.4-3.1,0.6-4,0.9c1.2,0.2,2.5-0.8,3,0.6C582.9,259.5,581,259.6,579.3,259c-0.2-0.7-0.7-1.2-1.3-1.5
		C578.1,258.2,578.6,258.8,579.3,259 M598.1,255.5c0.6-0.2,1.1-0.5,1.5-0.9l0.3,0.5c-0.3,0.6-1.1,0.9-1.7,0.5
		C598.3,255.5,598.2,255.5,598.1,255.5c-0.8,0.3-1.6,0.6-2.5,0.8c-0.5,1.7,3.1,2.8,4.1,3.7c-1.7-0.4-3.3-2.1-5.5-0.9
		c0.3,0.5,0.1,0.9,1.5,0.7l-3.1,0.6c-3.7-2.2-0.4-3.1,3-4.1c0.1-0.5,0.5-1,0.9-1.3C597.1,254.8,597.6,255.2,598.1,255.5
		 M572.5,253.8l1.8,0.3c1,0.6,0.5,1.3,0.8,1.8C573.1,255.9,570.3,255.1,572.5,253.8 M676.8,258.8c-1.2,0.2,0.8,2.8,3.5,3l-2,2.1
		c0.4-1.7-4.7-2.8-5.2-3.1C672.7,258.3,674.4,259.8,676.8,258.8 M769.5,332.3c-1.3,1-0.9,2.9-0.4,4.8s1.4,3.8,1.2,4.6
		c-1.1-1.9-1.9-4-2.5-6.2C767.2,333.5,767.4,331.9,769.5,332.3 M774.2,343.1c0.4,1.8,0.8,2.3-0.8,2.5c-0.5,1,0.7,2.3,0.2,3.3
		C771.5,345.6,774,345.3,774.2,343.1c-0.1-0.5-0.2-1-0.3-1.7C774.2,341.9,774.3,342.5,774.2,343.1 M734.1,283.6l-0.6-3.4
		c-1.1-0.8-2.2-1.4-3.3-2.1C731.6,279.9,732.9,281.8,734.1,283.6 M699.4,259.9c-0.2,1.3-4.4-0.1-5.1-1.1c-0.3,1.8,2.6,2.5,4.7,3.6
		c0.4,0.4,0.9,0.6,1.4,0.8c-0.4-0.3-0.9-0.6-1.4-0.8c-0.7-0.7,0.2-1.3,0.5-1.9h1.3c-1-0.6-1.9-1.1-2.9-1.7
		C698.4,259.2,698.9,259.5,699.4,259.9 M627.5,243.5c-2.7,1.2-3,0.7-4.8,0.2c0.6-0.4,1.3-0.6,2-0.6
		C625.6,243.1,626.6,243.2,627.5,243.5 M720.5,268c-4.5-1.4,0.6,3.4-2.4,2.8l2.2,1c-4.3-0.2-1.4-3.1-4.1-3.9
		c0.6,0.1,1.2,0.4,1.8,0.5c1-0.4,0.6-1-0.2-1.7c-0.7-0.7-1.7-1.3-1.5-2c0.7,0.1,1.3,0.4,1.9,0.7c0.6,0.4,1.2,0.8,1.8,1.3
		C720.9,267.6,721.4,268.4,720.5,268 M623.3,242.2c-4.5,1.6-3.6-2-6.4-2.3C620.6,238.4,619.9,241.6,623.3,242.2 M695.7,251.5
		l0.4-0.2c-1.1-0.8-2.2-1.4-3.3-2.1l-0.4,0.2C693.5,250.1,694.6,250.7,695.7,251.5"/>
	<path class="st0" d="M617.4,259.8c-0.8,0.2-1.5,0.2-2.3,0C615.8,259.7,616.6,259.7,617.4,259.8"/>
	<path class="st0" d="M764.2,355.5c0.5,0,0.8,0.3,1,0.8C765,356.3,764.6,356.1,764.2,355.5"/>
	<path class="st0" d="M763.9,363.2c0,0.1,0,0.2,0,0.3c-0.1,0.1-0.1,0.2-0.1,0.2L763.9,363.2z"/>
	<path class="st0" d="M575.2,553.4c-2.5-1.3,1.5-1,2.8-1.6C576.7,552.4,576.8,554,575.2,553.4"/>
	<path class="st0" d="M587.2,552.2c-1.3-0.2-2.6-0.1-3.8,0.3C584.6,551.9,586,551.8,587.2,552.2"/>
	<path class="st0" d="M578.2,555.1c1.6-1.1,3.3-2,5.1-2.6C582.1,553.1,581.3,554.4,578.2,555.1"/>
	<path class="st0" d="M615,538.9c-2.2-0.5-5,1.7-5,1.7c6.3-4.3-2.5-1.7-3.4-2.3C611,536.7,611.7,538.2,615,538.9"/>
	<path class="st0" d="M624.2,535.2c-0.6,0.3-1.2,0.7-1.8,1.1C622.9,535.8,623.6,535.4,624.2,535.2"/>
	<path class="st0" d="M626.2,532.8c2.5-0.9,4,0.1,5.6,0.6c-2.3,2.4-5.2,1.1-7.5,1.8C626,534.3,627.6,533.7,626.2,532.8"/>
	<path class="st0" d="M690.6,486.1c-0.6,0.2-1.7,1-2.2,0.4l3.4-2.5C693.4,483.3,691.2,485.4,690.6,486.1"/>
	<path class="st0" d="M705.5,479.6c2.7-2.1-0.1-2.6,1.6-3.4l1.7,2.3L705.5,479.6z"/>
	<path class="st0" d="M713.3,492.2c-0.3,0.1-0.7,0.3-1,0.5c0.3-0.2,0.7-0.5,1-0.7V492.2z"/>
	<path class="st0" d="M716,466.7l-3.9-0.8C714.7,464.6,716.5,466.4,716,466.7"/>
	<path class="st0" d="M723.6,456.2l-2.1,0.7l2.5-1.9l2.4-1.9C725.4,454.1,724.6,455.2,723.6,456.2"/>
	<path class="st0" d="M734.9,445.7l-0.2-0.8c1.1-0.9,2.1-1.9,3.2-2.8C736.9,443.3,735.9,444.5,734.9,445.7"/>
	<path class="st0" d="M737.2,298.2c0.7-1.2,2.1-0.5,3.5,0.7s2.8,2.9,3.8,3.4c-1.7,0.7-2.4-0.5-3.3-1.8c-0.4-0.7-0.9-1.3-1.5-1.8
		C739,298.2,738.1,298.1,737.2,298.2"/>
	<path class="st0" d="M623.3,258.8c2.2,0.3,4.3,0.7,6.5,1C624.7,260.6,628.4,259.7,623.3,258.8"/>
	<path class="st1" d="M945.2,489.5c-258.3-65.2-528.7-65.2-787,0l-32.6-126.9c279.7-70.7,572.5-70.7,852.2,0L945.2,489.5z"/>
	<path class="st1" d="M931.7,469.6c-249.8-60.1-510.2-60.1-760,0l-23.5-96.1c265.2-63.8,541.8-63.8,807,0L931.7,469.6"/>
	<path class="st4" d="M931.7,469.6c-249.8-60.1-510.2-60.1-760,0l-23.5-96.1c265.2-63.8,541.8-63.8,807,0L931.7,469.6z"/>
	<path class="st0" d="M229.1,436c-0.3-1.3-0.4-2-0.7-3.3c2.6-0.8,4-1.2,6.6-2l1.7-2c-2.9-14.7-5.9-29.3-8.8-44l-2.3-0.7
		c-3,0.4-4.4,0.6-7.4,1l-0.7-3.2c8.6-1.8,12.9-2.6,21.6-4.3c0.2,0.8,0.2,1.2,0.4,2c15.6,11.3,31,22.9,46.2,34.6
		c-2.1-12.8-4.3-25.5-6.4-38.3l-2.3-1.1c-2.8,0.2-4.2,0.3-7,0.5c-0.2-1.3-0.3-2-0.6-3.3c9.7-1.7,14.5-2.5,24.2-4
		c0.2,1.3,0.3,2,0.5,3.3l-6.8,1.8l-1.8,1.8c2.7,16.4,5.4,32.8,8.1,49.2l-7.3,1.2c-16.9-13.1-34-25.8-51.4-38.3l8,40.5l2.3,1.1
		l6.8-0.7c0.3,1.3,0.4,2,0.6,3.3C243.2,433.1,238.5,434.1,229.1,436"/>
	<path class="st0" d="M308.7,421.6c-0.2-1.3-0.3-2-0.5-3.4l6.3-1.4l1.8-1.4c-2.2-15-4.5-30-6.7-45l-2.1-0.9l-6.6,0.5
		c-0.2-1.3-0.3-2-0.5-3.3c18.4-2.8,36.9-5.3,55.3-7.6c0.6,4.8,0.9,7.2,1.4,12l-6.5,0.8l-2.5-6.8l-1.7-1c-10.7,1.3-16,2.1-26.7,3.6
		l2.9,20.6c7.5-1.1,11.2-1.6,18.7-2.5l1.5-1.4l0.4-6.1l5.4-0.7c0.9,7.2,1.4,10.8,2.3,18l-5.4,0.7c-0.7-2.3-1.1-3.5-1.9-5.8l-1.8-1
		c-7.5,1-11.2,1.5-18.6,2.5c1.3,9.2,2,13.8,3.3,22.9c10-1.4,20-2.8,30-4l1.4-1.5c0.4-3.4,0.5-5.1,0.9-8.5l5.8-0.7
		c0.6,5.4,0.9,8,1.6,13.4C347,416.2,327.8,418.8,308.7,421.6"/>
	<path class="st0" d="M395.2,410.7c-8-16.3-16.1-32.5-24.4-48.7c-3-0.1-4.4-0.2-7.4-0.3c-0.2-1.3-0.2-2-0.4-3.3
		c10.4-1.2,15.6-1.8,26-2.8c0.1,1.3,0.2,2,0.3,3.3l-7.2,1.4c-0.3,0.5-0.5,0.8-0.8,1.3c6.3,12.1,12.5,24.3,18.6,36.5
		c4.7-15,9.5-29.9,14.5-44.8c3.3-0.3,4.9-0.4,8.2-0.7c7.5,14.2,14.8,28.4,21.9,42.7c3.7-13.2,7.5-26.4,11.4-39.5l-1.3-1.1
		c-3.1-0.2-4.7-0.3-7.8-0.5c-0.1-1.3-0.1-2-0.2-3.3c9.6-0.6,14.4-0.9,24-1.4c0.1,1.3,0.1,2,0.2,3.3c-3.1,0.6-4.6,0.9-7.7,1.5
		c-5.2,17.3-10.2,34.6-15.1,52c-3.1,0.2-4.6,0.3-7.7,0.5c-7.4-14.6-15-29.2-22.7-43.6c-5.2,15.5-10.1,31.1-14.9,46.7
		C399.7,410.3,398.2,410.4,395.2,410.7"/>
	<path class="st0" d="M535.6,347.7c10.8-0.2,22.5,1.3,31.6,7.2c7.4,4.8,11,11.8,10.8,20.6c0,4.6-1.3,9.1-3.8,13
		c-2.7,4-6.4,7.3-10.7,9.5c-3.5,1.9-7.3,3.2-11.2,3.9c-5.4,0.9-10.8,1.3-16.3,1.3c-11.1,0.1-16.6,0.2-27.7,0.5c0-1.4,0-2-0.1-3.4
		l6.4-0.6l1.9-1.2c-0.3-15.2-0.7-30.3-1-45.5l-2-1.1l-6.6-0.3c0-1.3-0.1-2-0.1-3.3C516.4,348,526,347.8,535.6,347.7 M525.9,351.6
		c0.2,15.9,0.5,31.9,0.7,47.8c3.6-0.1,5.4-0.1,8.9-0.1c10.3-0.1,17.9-2.1,23.1-6s7.8-9.9,7.8-18s-2.4-14.1-7.6-18
		c-5.2-3.9-13.1-6-23.8-5.9C531.4,351.5,529.6,351.6,525.9,351.6"/>
	<path class="st0" d="M586.2,403.5c0-1.4,0-2,0.1-3.4l6.4-0.2l2-1.1c0.4-15.2,0.8-30.3,1.2-45.5l-2-1.2l-6.6-0.6c0-1.3,0-2,0.1-3.3
		c18.6,0.5,37.1,1.2,55.7,2.2c-0.3,4.8-0.4,7.2-0.7,12c-2.6-0.1-3.9-0.2-6.5-0.4c-0.5-2.8-0.8-4.3-1.3-7.1l-1.5-1.2
		c-10.7-0.5-16.1-0.8-26.8-1.1c-0.3,8.4-0.4,12.5-0.7,20.9c7.5,0.3,11.3,0.4,18.8,0.8l1.7-1.1l1.4-6l5.5,0.3
		c-0.4,7.3-0.5,10.9-0.9,18.2l-5.4-0.3c-0.3-2.4-0.5-3.6-0.8-6l-1.6-1.3c-7.5-0.3-11.2-0.5-18.7-0.7c-0.3,9.3-0.5,13.9-0.8,23.1
		c10.1,0.3,20.1,0.8,30.2,1.3l1.7-1.2c1-3.3,1.4-4.9,2.4-8.2l5.9,0.3c-0.3,5.4-0.5,8.1-0.8,13.5C624.9,404.8,605.6,404,586.2,403.5"
		/>
	<path class="st0" d="M650.3,406.2c0.1-1.4,0.1-2,0.2-3.4l7.1,0.1l2-1c1-15.1,2.1-30.3,3.1-45.4l-1.9-1.3l-7.3-1l0.2-3.3
		c9.5,0.6,18.9,1.3,28.3,2c-0.1,1.3-0.2,2-0.3,3.3H675l-2.1,1l-3.5,46.5c10.2,0.8,15.2,1.2,25.4,2.1c0.7-0.5,1-0.7,1.7-1.2
		c1.1-3.9,1.7-5.8,2.8-9.7l5.9,0.6l-1.5,15C686.1,408.8,668.2,407.4,650.3,406.2"/>
	<path class="st0" d="M709.5,411c0.1-1.4,0.2-2,0.3-3.4l7.2,0.3l2-1l4.8-45.2l-1.8-1.4c-2.9-0.5-4.4-0.8-7.3-1.2
		c0.1-1.3,0.2-2,0.3-3.3c9.8,1,19.6,2,29.4,3.2l-0.4,3.3c-3-0.2-4.5-0.2-7.4-0.4l-2.1,0.9l-5.1,45.2l1.8,1.4l7.1,1.2l-0.4,3.4
		C728.5,413,719,412,709.5,411"/>
	<path class="st0" d="M807.8,422c-3.8,0.3-7.7,0.4-11.5,0.3s-7.6-0.4-11.4-1c-3.4-0.5-6.9-1.3-10.2-2.3c-2.9-0.9-5.7-2.1-8.4-3.6
		c-5.3-2.9-9.7-7.2-12.8-12.4c-2.8-4.6-4-10-3.4-15.4c1.1-8.5,5.7-15,13.6-19.2c9.4-5.1,20.3-4.8,30.1-3.8c3.7,0.5,7.3,1.3,10.8,2.4
		c3.9,1.1,7.8,2.5,11.6,4l-2,12.5l-6.4-1l-0.5-7.7l-1.3-1.7c-2-1-4.1-1.9-6.2-2.6c-2.1-0.7-4.2-1.2-6.3-1.5
		c-8.7-1.3-15.9-0.2-21.6,3.4s-8.9,8.9-9.9,16.2c-1,7.7,0.8,14.1,5.4,19.2s11.4,8.3,20.5,9.6c1.6,0.2,3.2,0.4,4.9,0.5s3.3,0,5-0.1
		l2-1c1.7-3.5,2.5-5.2,4.2-8.6l6,1C809.1,414.4,808.7,416.9,807.8,422"/>
	<path class="st0" d="M816.1,425.3l0.6-3.3l6.4,0.7l2.1-0.8l7.8-44.8l-1.7-1.5l-6.4-1.6l0.5-3.3c18.4,3.2,36.7,6.6,55,10.3
		c-1,4.7-1.5,7.1-2.4,11.8l-6.4-1.2c-0.1-2.9-0.1-4.3-0.2-7.2l-1.3-1.5c-10.6-2.1-15.9-3.1-26.5-5c-1.5,8.2-2.2,12.3-3.7,20.6
		c7.4,1.3,11.1,2,18.6,3.5l1.8-0.8l2.2-5.7l5.4,1.1l-3.5,17.8l-5.3-1c0-2.4,0-3.6,0-6.1l-1.4-1.5c-7.4-1.4-11.1-2.1-18.5-3.5
		l-4.1,22.8c9.9,1.8,19.9,3.7,29.8,5.7l1.8-1c1.4-3.1,2.1-4.7,3.6-7.8l5.8,1.2c-1.1,5.3-1.6,7.9-2.7,13.2
		C854.2,432.2,835.1,428.7,816.1,425.3"/>
	<path class="st0" d="M483,634.8l1-3.9c-4.2-1.1-6.2-1.6-10.4-2.8l-2,6.9c3.7,1.1,5.5,1.6,9.2,2.6c-0.3,1.2-0.5,1.8-0.8,2.9
		c-3.8-1-5.6-1.5-9.4-2.6c-0.9,3-1.4,4.6-2.3,7.6c4.4,1.3,6.6,1.9,11.1,3c0.4-1.7,0.7-2.6,1.1-4.3c1.3,0.3,1.9,0.5,3.2,0.8l-1.8,7.2
		c-8.7-2.1-13.1-3.3-21.7-6.1c0.4-1.2,0.6-1.7,0.9-2.9c1.3,0.4,2,0.6,3.3,1l5.4-17.4c-1.2-0.4-1.9-0.6-3.1-1l0.9-2.9
		c7.9,2.6,11.9,3.7,19.9,5.6c-0.7,2.8-1,4.1-1.7,6.9L483,634.8"/>
	<path class="st0" d="M502.2,633.3l0.3-1.6l3,0.5c-0.5,2.9-0.8,4.4-1.2,7.3l-3-0.5l0.3-1.7c-0.8-2-2.6-3.4-4.7-3.8
		c-1.1-0.3-2.2-0.2-3.3,0.1c-0.8,0.4-1.4,1.1-1.6,2c-0.2,0.8,0,1.7,0.6,2.4c0.8,0.8,1.8,1.5,2.9,1.9l2.8,1.3c1.5,0.6,2.9,1.5,4,2.7
		c0.8,0.8,1.3,1.8,1.6,2.8c0.2,1,0.2,2,0,3c-0.2,2-1.4,3.8-3.1,4.8c-2,1-4.2,1.3-6.4,0.8c-2.4-0.5-4.5-1.8-6-3.7l-0.4,2
		c-1.3-0.3-2-0.4-3.3-0.7l2-8.6l3.2,0.7c-0.2,0.8-0.3,1.2-0.5,2.1c1,2.9,2.7,4.7,5.2,5.2c1.2,0.3,2.5,0.2,3.6-0.4
		c1-0.6,1.6-1.6,1.7-2.7c0.3-1.7-0.8-3.1-3.2-4.3l-3-1.5c-1.8-0.8-3.3-2-4.5-3.6c-0.8-1.3-1.1-3-0.7-4.5c0.3-1.8,1.4-3.4,3-4.4
		c1.7-0.9,3.7-1.1,5.6-0.6C499.2,630.8,501,631.8,502.2,633.3"/>
	<path class="st0" d="M524.9,643.9l0.5-5.8c-2-0.2-3.1-0.3-5.1-0.5l-2,18.1c1.4,0.2,2.1,0.2,3.5,0.4c-0.1,1.2-0.2,1.8-0.3,3
		c-4.4-0.4-6.6-0.7-10.9-1.3c0.2-1.2,0.2-1.8,0.4-3c1.4,0.2,2,0.3,3.4,0.5c0.9-7.2,1.4-10.8,2.3-18.1c-2-0.3-3-0.4-5.1-0.7
		c-0.3,2.3-0.5,3.5-0.8,5.8c-1.2-0.2-1.9-0.3-3.1-0.5c0.6-3.5,0.8-5.3,1.4-8.8c7.9,1.2,11.9,1.7,19.8,2.4c-0.3,3.5-0.4,5.3-0.7,8.8
		C526.8,644.1,526.2,644,524.9,643.9"/>
	<path class="st0" d="M541.2,660.4c0-1.7,0.1-2.6,0.1-4.3c1.9,0.1,2.8,0.1,4.7,0.1c0,1.7,0,2.6-0.1,4.3
		C544.1,660.5,543.1,660.4,541.2,660.4"/>
	<path class="st0" d="M576.3,641.2c0.2,1.3-0.1,2.6-0.8,3.7c-1,1.5-2.2,2.7-3.6,3.8l-1.6,1.3c-1.3,1.1-2.3,1.9-3,2.5
		s-1.3,1.3-1.8,2.1s-0.8,1.6-1,2.5c4-0.2,6-0.3,10-0.7c-0.1-2.2-0.2-3.4-0.3-5.6l3.1-0.3l0.6,8.7c-6.9,0.6-10.3,0.9-17.2,1.1
		c-0.1-1.8,0.2-3.6,0.9-5.2c0.6-1.4,1.4-2.6,2.4-3.7c1-1.1,2.2-2.1,3.3-3.1c1-0.8,1.5-1.2,2.4-2c0.9-0.7,1.7-1.5,2.3-2.4
		c0.4-0.7,0.6-1.5,0.5-2.3c0-1.1-0.5-2.1-1.3-2.8c-0.9-0.6-1.9-0.9-3-0.8c-1.3-0.1-2.6,0.5-3.3,1.6c-0.7,1.4-0.9,2.9-0.8,4.4v0.8
		l-3.4,0.1c0-0.4,0-0.6,0-0.9c-0.2-2.2,0.3-4.3,1.5-6.1c0.6-0.8,1.5-1.5,2.4-2c1.1-0.5,2.2-0.8,3.4-0.8c1.4-0.1,2.9,0.1,4.2,0.6
		c1.1,0.5,2,1.2,2.7,2.2C575.9,639,576.3,640,576.3,641.2"/>
	<path class="st0" d="M598.4,644.3c0.5,2.3,0.5,4.6,0.1,6.9c-0.3,1.8-1.2,3.4-2.5,4.7c-1.3,1.2-2.9,2-4.7,2.2
		c-2.7,0.5-5.5-0.4-7.3-2.5s-2.9-5-3.3-8.8c-0.3-2.3-0.2-4.6,0.3-6.9c0.4-1.7,1.2-3.3,2.5-4.6c1.2-1.1,2.7-1.8,4.3-2
		c2.5-0.4,5.1,0.5,6.8,2.4C596.5,637.7,597.8,640.5,598.4,644.3 M590.9,655.3c1.6-0.2,3-1.3,3.6-2.8c0.7-1.6,0.7-4.2,0.2-7.7
		s-1.4-5.8-2.5-7.1c-0.9-1.2-2.5-1.9-4-1.6c-1.6,0.2-3,1.3-3.4,2.9c-0.6,2.4-0.8,4.9-0.3,7.4c0.4,3.4,1.1,5.8,2.2,7.2
		C587.6,654.9,589.3,655.6,590.9,655.3"/>
	<path class="st0" d="M617.5,649.8l0.7,2.9c-4.2,1-6.4,1.5-10.7,2.3c-0.2-1.2-0.3-1.7-0.6-2.9c1.4-0.3,2.2-0.4,3.6-0.7
		c-1.5-7.2-2.3-10.8-3.8-18l-3.4,0.7c-0.2-1.1-0.3-1.7-0.6-2.8c2.7-0.5,4-0.8,6.7-1.4l4.6,20.7L617.5,649.8"/>
	<path class="st0" d="M635.5,629c0.4,1.2,0.4,2.5,0,3.7c-0.6,1.6-1.6,3.2-2.7,4.5l-1.3,1.6c-1,1.3-1.9,2.4-2.4,3.2s-1,1.6-1.3,2.5
		c-0.3,0.8-0.5,1.8-0.4,2.7c3.9-1.1,5.8-1.6,9.7-2.8c-0.6-2.2-0.9-3.2-1.5-5.4l3-1l2.5,8.3c-6.6,2.1-10,3.1-16.7,4.9
		c-0.5-1.7-0.5-3.5-0.2-5.3c0.3-1.5,0.8-2.9,1.5-4.1c0.8-1.3,1.7-2.5,2.6-3.7c0.8-1,1.2-1.5,2-2.5c0.7-0.8,1.3-1.8,1.7-2.8
		c0.3-0.8,0.3-1.6,0-2.4c-0.3-1-0.9-1.9-1.9-2.4c-1-0.4-2.1-0.5-3.2-0.1c-1.3,0.2-2.4,1.1-2.9,2.3c-0.4,1.5-0.3,3,0.2,4.5
		c0.1,0.3,0.1,0.5,0.2,0.8l-3.3,0.9c-0.1-0.4-0.1-0.5-0.2-0.9c-0.7-2.1-0.6-4.3,0.2-6.3c0.4-1,1.1-1.8,1.9-2.5c1-0.7,2-1.2,3.2-1.5
		c1.4-0.5,2.9-0.6,4.3-0.3c1.2,0.2,2.3,0.8,3.2,1.5C634.6,626.9,635.2,627.9,635.5,629"/>
	<path class="st0" d="M421.8,144.8l-1.6-2.9c-4,2.2-6,3.3-10,5.6c1.2,2,1.8,3,3,5.1c3.4-2,5-2.9,8.4-4.8l1.2,2.2
		c-3.4,1.8-5,2.8-8.4,4.8c1.3,2.2,2,3.4,3.3,5.6c1.3-0.8,1.9-1.1,3.2-1.9l1.2,2.1c-4,2.3-6,3.5-10,6l-1.3-2.1c1.2-0.8,1.9-1.2,3.1-2
		l-7.8-12.6l-3.3,2.1l-1.3-2.1c6.7-4.3,13.7-8.4,20.8-12l2.7,5.1L421.8,144.8"/>
	<path class="st0" d="M457.5,133.1c0.7,1.8,0.7,3.9,0.1,5.7c-0.7,2.1-2,3.9-3.6,5.3c-1.9,1.7-4.2,3.1-6.6,4.1
		c-2.3,1.1-4.9,1.7-7.4,1.9c-2.2,0.2-4.3-0.1-6.3-1c-1.8-0.8-3.2-2.2-4.1-3.9s-1.1-3.7-0.6-5.6c0.6-2.2,1.8-4.1,3.4-5.7
		c2-1.9,4.3-3.5,6.9-4.6c2.6-1.2,5.4-1.9,8.2-2c2.2-0.1,4.5,0.3,6.5,1.4C455.6,129.8,456.9,131.3,457.5,133.1 M446.5,145.8
		c1.7-0.7,3.2-1.7,4.4-3c1.1-1.1,1.9-2.5,2.3-4c0.4-1.3,0.3-2.7-0.2-4s-1.5-2.3-2.7-3c-1.4-0.8-3-1.2-4.6-1.1
		c-1.9,0-3.8,0.5-5.6,1.3c-1.7,0.7-3.3,1.8-4.6,3.1c-1.1,1.1-1.8,2.5-2.1,4c-0.3,1.4-0.1,2.8,0.5,4c0.6,1.3,1.6,2.4,2.9,3.1
		c1.3,0.7,2.9,1,4.4,0.9C443.1,147,444.9,146.6,446.5,145.8"/>
	<path class="st0" d="M490.2,123.3c0.5,1.9,0.2,3.9-0.6,5.7c-1,1.9-2.4,3.6-4.2,4.8c-2.1,1.5-4.5,2.6-7,3.3c-2.4,0.8-5,1.1-7.5,0.9
		c-2.1-0.1-4.2-0.8-6.1-1.9c-1.6-1-2.8-2.6-3.5-4.4c-0.7-1.8-0.6-3.8,0.1-5.6c0.9-2,2.2-3.8,4-5.2c2.2-1.7,4.6-2.9,7.2-3.6
		c2.7-0.8,5.5-1.1,8.3-0.9c2.2,0.2,4.4,0.9,6.2,2.2C488.6,119.8,489.7,121.4,490.2,123.3 M477.7,134.5c1.7-0.5,3.3-1.3,4.7-2.4
		c1.2-1,2.2-2.2,2.8-3.6c0.5-1.3,0.6-2.7,0.3-4c-0.4-1.3-1.2-2.5-2.3-3.3c-1.3-0.9-2.8-1.5-4.4-1.7c-1.9-0.2-3.8,0-5.6,0.5
		c-1.8,0.5-3.4,1.3-4.9,2.5c-1.2,1-2.1,2.2-2.6,3.7c-0.4,1.3-0.4,2.7,0,4c0.5,1.4,1.3,2.6,2.5,3.4c1.2,0.9,2.7,1.4,4.2,1.5
		C474.2,135.2,476.1,135,477.7,134.5"/>
	<path class="st0" d="M520.8,117.8c0.5,3.1-0.9,6.3-3.5,8.1c-2.7,2.1-6.8,3.5-12.4,4.5c-4.1,0.7-6.2,1.1-10.2,2.1
		c-0.2-1-0.3-1.5-0.5-2.4c1.5-0.3,2.2-0.5,3.7-0.8c-1.2-5.8-1.8-8.8-3-14.6l-3.9,0.8c-0.2-1-0.3-1.4-0.5-2.4c4.5-1,6.7-1.4,11.2-2.3
		c6.1-1.1,10.7-1,13.9,0.2C518.5,112,520.6,114.7,520.8,117.8 M516.1,118.5c-0.1-1.5-0.8-2.9-1.9-3.9c-1.3-1-2.8-1.7-4.5-1.8
		c-2.6-0.2-5.1,0-7.6,0.5l-2.8,0.5c1.1,5.8,1.7,8.8,2.8,14.6l2.6-0.5c4.3-0.8,7.3-1.8,9.1-3.3C515.6,123.1,516.5,120.8,516.1,118.5"
		/>
	<path class="st0" d="M553.2,110.4c0,0.8-0.3,1.5-0.9,2.1c-0.6,0.6-1.3,1-2,1.3c-0.8,0.3-1.9,0.7-3.2,1.1c2.4,2.2,3.6,3.2,5.9,5.4
		c1.1-1.3,1.8-2.9,2.2-4.5c2.4,0,3.6,0.1,5.9,0.2l-0.1,2.4l-3-0.1c-0.6,1.6-1.6,3.1-2.9,4.2l1.5,1.4c1.7,0,2.5,0.1,4.3,0.1
		c0,1-0.1,1.5-0.1,2.5c-2.5-0.1-3.8-0.1-6.3-0.2c-0.7-0.7-1.1-1.1-1.8-1.8c-2.3,1.3-4.8,2-7.4,2.1c-1.7,0.1-3.4-0.2-5.1-0.7
		c-1.4-0.4-2.7-1.2-3.7-2.2c-0.9-0.9-1.4-2-1.5-3.3s0.4-2.7,1.4-3.6c1.4-1.3,3.1-2.2,4.9-2.7c-1.2-0.8-2-2-2.2-3.4
		c0-0.9,0.3-1.7,0.9-2.3c0.7-0.8,1.6-1.3,2.6-1.7c1.1-0.4,2.4-0.6,3.6-0.6c1.2,0,2.4,0.1,3.6,0.5c1,0.3,1.9,0.8,2.6,1.5
		C553,108.8,553.3,109.6,553.2,110.4 M545.6,124.2c1.7,0,3.4-0.6,4.8-1.7c-2.8-2.7-4.2-4-7.1-6.6c-1.2,0.4-2.3,1-3.3,1.8
		c-0.7,0.6-1,1.4-1,2.3c0,0.8,0.4,1.6,0.9,2.1c0.6,0.7,1.4,1.2,2.3,1.5C543.4,124,544.5,124.2,545.6,124.2 M544.9,113.1
		c1.2-0.3,2.3-0.8,3.4-1.4c0.6-0.3,0.9-0.8,1-1.4c0-0.5-0.3-1-0.8-1.3c-0.7-0.4-1.5-0.6-2.3-0.5c-0.8,0-1.6,0.2-2.3,0.6
		c-0.5,0.3-0.8,0.8-0.8,1.4c0,0.3,0.1,0.5,0.3,0.8C543.9,111.9,544.4,112.5,544.9,113.1"/>
	<path class="st0" d="M601.6,120.8c-0.5,3.1-2.7,5.7-5.7,6.7c-3.2,1.2-7.5,1.3-13.2,0.6c-4.1-0.5-6.2-0.7-10.3-1.1l0.2-2.5
		c1.5,0.1,2.2,0.2,3.8,0.3c0.6-5.9,0.9-8.9,1.4-14.8c-1.6-0.2-2.4-0.2-4-0.3l0.2-2.5c4.5,0.4,6.8,0.6,11.3,1.2
		c6.1,0.8,10.5,2.3,13.2,4.3C601.1,114.6,602.3,117.8,601.6,120.8 M596.8,120.1c0.3-1.5,0.1-3-0.6-4.3c-0.9-1.4-2.2-2.4-3.8-3
		c-2.4-1-4.9-1.6-7.4-1.8c-1.1-0.1-1.7-0.2-2.8-0.3c-0.7,5.9-1,8.9-1.7,14.8l2.7,0.3c4.3,0.5,7.5,0.4,9.7-0.5
		C595.1,124.4,596.6,122.4,596.8,120.1"/>
	<path class="st0" d="M627.2,122.4c-0.3,1.2-1.2,2.2-2.4,2.6c-1.5,0.6-3.1,0.8-4.8,0.6c1.2,3.3,1.8,5,3,8.3l3.3,1
		c-0.3,1-0.4,1.4-0.7,2.4c-2.4-0.7-3.6-1.1-6-1.7c-1.4-4.2-2.2-6.3-3.8-10.5c-1.6-0.4-2.4-0.6-4-0.9c-0.6,2.6-0.9,4-1.5,6.6
		c1.4,0.3,2.1,0.5,3.5,0.8c-0.2,1-0.3,1.4-0.6,2.4c-4.5-1.1-6.8-1.6-11.3-2.5l0.5-2.4c1.5,0.3,2.2,0.5,3.7,0.8
		c1.3-5.8,1.9-8.7,3.1-14.6c-1.6-0.3-2.4-0.5-4-0.8l0.5-2.4c4.9,1,7.3,1.5,12.2,2.7c3.8,0.9,6.4,2.1,7.8,3.3
		C627.2,119,627.8,120.8,627.2,122.4 M622.8,121.1c0.3-0.8,0-1.8-0.7-2.3c-1.1-0.8-2.4-1.4-3.8-1.7c-1.8-0.4-2.7-0.7-4.5-1.1
		c-0.5,2.2-0.8,3.3-1.3,5.5c1.7,0.4,2.5,0.6,4.1,1c1.4,0.4,2.8,0.6,4.3,0.4C621.8,122.8,622.6,122.1,622.8,121.1"/>
	<path class="st0" d="M639.8,123.5l-4.8,14.1l2.9,1l-0.8,2.3c-3.9-1.4-5.9-2.1-9.9-3.3l0.7-2.4c1.2,0.4,1.8,0.5,2.9,0.9
		c1.8-5.7,2.7-8.5,4.5-14.2c-1.2-0.4-1.8-0.6-3.1-1l0.7-2.4c4.3,1.3,6.4,2,10.6,3.5l-0.8,2.3L639.8,123.5"/>
	<path class="st0" d="M666.8,134.2c-1.6-0.7-2.4-1.1-3.9-1.8l1-2.3c4.6,2,6.9,3.1,11.4,5.3l-1.1,2.2c-1.6-0.8-2.4-1.2-4-2
		c-3,6.3-4.5,9.5-7.6,15.9c-1.6-0.8-2.4-1.1-4-1.9c-2.2-8.4-3.4-12.7-6.3-21.1c-2.1,5.3-3.1,8-5.2,13.3c1.5,0.6,2.3,0.9,3.8,1.5
		l-0.9,2.3c-4.3-1.8-6.5-2.6-10.8-4.2c0.3-0.9,0.5-1.4,0.8-2.3c1.5,0.6,2.3,0.8,3.8,1.4l5.3-13.9l-4-1.5c0.3-0.9,0.5-1.4,0.8-2.3
		c3.9,1.4,5.8,2.1,9.7,3.7c2.7,7.7,3.8,11.6,5.9,19.3C663.6,141.2,664.7,138.9,666.8,134.2"/>
	<path class="st0" d="M683.1,142.4l-7.1,13.1c1.2,0.6,1.8,1,2.9,1.6c-0.5,0.9-0.7,1.3-1.2,2.2c-3.9-2.2-5.9-3.2-9.9-5.3
		c0.4-0.9,0.7-1.3,1.1-2.2c1.3,0.6,1.9,1,3.2,1.6l6.9-13.2c-1.3-0.7-2-1.1-3.4-1.7l1.1-2.2c4.4,2.2,6.6,3.4,11,5.9
		c-0.5,0.9-0.7,1.3-1.2,2.2C685.2,143.6,684.5,143.2,683.1,142.4 M696.3,150.1c-4.7,0.3-7,0.6-11.6,1.1c1.7,4.7,2.5,7,4,11.7
		l2.7,1.6l-1.3,2.1c-4-2.5-6-3.7-10-6c0.5-0.9,0.7-1.3,1.2-2.1c1.1,0.6,1.7,1,2.8,1.6c-1.4-4.5-2.2-6.8-3.8-11.2
		c4.6-0.7,6.9-1,11.6-1.4c-1.2-0.7-1.8-1.1-3.1-1.8l1.2-2.1c4.2,2.4,6.3,3.7,10.5,6.3l-1.3,2.1C698,151.1,697.4,150.8,696.3,150.1"
		/>
</g>
</svg>
