<?xml version="1.0" standalone="no"?>
<!DOCTYPE svg PUBLIC "-//W3C//DTD SVG 20010904//EN"
 "http://www.w3.org/TR/2001/REC-SVG-20010904/DTD/svg10.dtd">
<svg version="1.0" xmlns="http://www.w3.org/2000/svg"
 width="512.000000pt" height="512.000000pt" viewBox="0 0 512.000000 512.000000"
 preserveAspectRatio="xMidYMid meet">

<g transform="translate(0.000000,512.000000) scale(0.100000,-0.100000)"
fill="#000000" stroke="none">
<path d="M3388 5085 c-227 -58 -859 -240 -883 -255 -65 -40 -96 -151 -61 -218
33 -63 114 -108 175 -97 20 4 221 58 446 122 335 94 419 114 458 110 55 -5 93
-29 122 -78 19 -31 20 -55 23 -316 l3 -283 170 0 169 0 0 298 c0 167 -5 317
-11 342 -37 163 -169 307 -334 364 -69 24 -206 29 -277 11z"/>
<path d="M1133 3933 c-12 -2 -34 -18 -48 -34 l-25 -31 0 -873 0 -874 58 -18
c77 -24 237 -24 315 0 l57 18 0 862 c0 801 -1 864 -18 897 -11 24 -28 39 -52
47 -33 11 -238 16 -287 6z"/>
<path d="M2779 3800 c-83 -14 -143 -57 -185 -132 -25 -45 -29 -64 -28 -123 0
-82 21 -130 82 -191 l40 -39 71 -1485 c40 -817 76 -1508 81 -1537 18 -104 89
-195 188 -241 l57 -27 755 0 755 0 56 26 c102 48 170 136 189 242 5 29 41 720
81 1537 l71 1485 40 39 c61 61 82 109 82 191 1 59 -3 78 -28 123 -31 55 -72
92 -134 120 -34 16 -122 17 -1082 18 -575 1 -1066 -2 -1091 -6z"/>
<path d="M735 3645 c-125 -13 -130 -14 -157 -44 -36 -40 -36 -33 7 -490 33
-350 37 -374 60 -410 15 -21 31 -70 40 -113 26 -137 74 -234 154 -313 l41 -39
0 712 c0 392 -3 711 -7 711 -5 -1 -66 -7 -138 -14z"/>
<path d="M1666 3653 c-3 -4 -6 -326 -6 -717 l0 -710 31 30 c39 37 105 133 130
189 11 25 28 85 39 134 10 49 30 107 43 128 23 36 27 65 62 442 28 300 34 410
26 427 -18 40 -54 55 -158 64 -54 6 -112 12 -130 14 -17 2 -34 2 -37 -1z"/>
<path d="M271 3281 c-142 -30 -150 -52 -103 -296 l27 -140 121 -3 120 -3 -22
228 c-12 125 -23 229 -23 231 -2 5 -38 0 -120 -17z"/>
<path d="M2150 3283 c0 -10 -9 -110 -20 -223 -11 -113 -20 -208 -20 -212 0 -5
54 -8 120 -8 116 0 120 1 125 23 25 110 55 314 50 337 -10 43 -34 59 -131 80
-110 24 -124 25 -124 3z"/>
<path d="M49 2655 c-58 -31 -62 30 81 -1296 72 -673 137 -1242 143 -1264 24
-80 -38 -75 1002 -75 710 0 925 3 944 13 59 30 51 -25 194 1297 90 830 131
1245 125 1265 -4 17 -19 40 -33 53 -25 21 -33 22 -216 22 l-191 0 -28 -28
c-20 -20 -30 -44 -36 -78 -10 -72 -51 -191 -86 -254 -100 -178 -245 -298 -443
-366 -73 -26 -93 -28 -225 -29 -160 0 -232 16 -354 77 -206 104 -363 310 -406
533 -27 143 -31 145 -267 145 -134 -1 -184 -4 -204 -15z"/>
</g>
</svg>
